<?xml version="1.0" encoding="utf-8"?>
<!-- Generator: Adobe Illustrator 27.5.0, SVG Export Plug-In . SVG Version: 6.00 Build 0)  -->
<svg version="1.1" xmlns="http://www.w3.org/2000/svg" xmlns:xlink="http://www.w3.org/1999/xlink" x="0px" y="0px"
	 viewBox="0 0 500 500" style="enable-background:new 0 0 500 500;" xml:space="preserve">
<g id="Background_Simple">
	<g>
		<path style="fill:#C6FF00;" d="M334.577,119.445c0,0-52.122-29.158-111.94-7.022c-59.818,22.136-97.928,79.793-130.041,125.709
			c-32.113,45.916-27.189,99.013,10.438,129.241s71.719,0.899,130.328,9.156c58.609,8.257,72.874,19.26,126.888-5.445
			c54.015-24.705,76.027-101.003,47.662-165.052C379.548,141.984,334.577,119.445,334.577,119.445z"/>
		<path style="opacity:0.8;fill:#FFFFFF;" d="M334.577,119.445c0,0-52.122-29.158-111.94-7.022
			c-59.818,22.136-97.928,79.793-130.041,125.709c-32.113,45.916-27.189,99.013,10.438,129.241s71.719,0.899,130.328,9.156
			c58.609,8.257,72.874,19.26,126.888-5.445c54.015-24.705,76.027-101.003,47.662-165.052
			C379.548,141.984,334.577,119.445,334.577,119.445z"/>
	</g>
</g>
<g id="Background">
	<g>
		<path style="fill:#C6FF00;" d="M217.012,292.527c0,0,0.812-23.142,0-25.984c-0.812-2.842-23.142-22.736-23.142-22.736
			s-6.09-41.411-16.646-50.749l-86.07,10.556c0,0-6.09,5.684-5.684,23.954c0.406,18.27,1.218,26.796-3.248,34.915
			c-4.466,8.12-8.932,32.073-0.406,44.253c8.526,12.18,11.368,15.022,19.082,14.616
			C108.612,320.946,217.012,292.527,217.012,292.527z"/>
		<g>
			<path style="opacity:0.7;fill:#FFFFFF;" d="M217.012,292.527c0,0,0.812-23.142,0-25.984
				c-0.812-2.842-23.142-22.736-23.142-22.736s-6.09-41.411-16.646-50.749l-86.07,10.556c0,0-6.09,5.684-5.684,23.954
				c0.406,18.27,1.218,26.796-3.248,34.915c-4.466,8.12-8.932,32.073-0.406,44.253c8.526,12.18,11.368,15.022,19.082,14.616
				C108.612,320.946,217.012,292.527,217.012,292.527z"/>
			<g>
				<path style="fill:#C6FF00;" d="M217.012,266.543L75.727,294.151c0,0,2.842,30.855,22.33,28.014
					c19.488-2.842,119.768-25.578,119.362-27.608C217.012,292.527,217.012,266.543,217.012,266.543z"/>
				<path style="opacity:0.5;fill:#FFFFFF;" d="M217.012,266.543L75.727,294.151c0,0,2.842,30.855,22.33,28.014
					c19.488-2.842,119.768-25.578,119.362-27.608C217.012,292.527,217.012,266.543,217.012,266.543z"/>
			</g>
		</g>
	</g>
	<g>
		<g>
			<g>
				<path style="fill:#C6FF00;" d="M362.125,207.214c0,0-3.125,85.714,0,87.054c3.125,1.339,34.821-8.036,36.161-10.268
					c1.339-2.232,7.143-85.714,0-85.714C391.143,198.286,362.125,207.214,362.125,207.214z"/>
				<path style="fill:#C6FF00;" d="M359,207.661c2.679,1.786,0.446,81.25-4.911,87.5c-5.357,6.25-46.875,14.286-47.768,9.821
					c-0.893-4.464,0.447-115.625,0.447-115.625S356.321,205.875,359,207.661z M398.286,198.286c0,0-43.75-19.196-50.893-18.75
					c-7.143,0.446-45.536,6.696-40.625,12.054c4.911,5.357,48.661,15.179,55.357,15.625
					C368.821,207.661,398.286,198.286,398.286,198.286z"/>
				<g>
					<path style="opacity:0.5;fill:#FFFFFF;" d="M362.125,207.214c0,0-3.125,85.714,0,87.054
						c3.125,1.339,34.821-8.036,36.161-10.268c1.339-2.232,7.143-85.714,0-85.714C391.143,198.286,362.125,207.214,362.125,207.214z
						"/>
					<path style="opacity:0.7;fill:#FFFFFF;" d="M359,207.661c2.679,1.786,0.446,81.25-4.911,87.5
						c-5.357,6.25-46.875,14.286-47.768,9.821c-0.893-4.464,0.447-115.625,0.447-115.625S356.321,205.875,359,207.661z
						 M398.286,198.286c0,0-43.75-19.196-50.893-18.75c-7.143,0.446-45.536,6.696-40.625,12.054
						c4.911,5.357,48.661,15.179,55.357,15.625C368.821,207.661,398.286,198.286,398.286,198.286z"/>
				</g>
			</g>
			<g>
				<path style="fill:none;stroke:#263238;stroke-linecap:round;stroke-linejoin:round;stroke-miterlimit:10;" d="M95.402,203.007
					c0,0,54.598-9.007,82.598-10.007c10,10,12.853,36.742,15.353,49.742c0,0,23.647,22.401,23.647,24.258s0.667,30,0.667,30"/>
				
					<line style="fill:none;stroke:#263238;stroke-linecap:round;stroke-linejoin:round;stroke-miterlimit:10;" x1="199.667" y1="111.667" x2="199.667" y2="248.333"/>
				<polyline style="fill:none;stroke:#263238;stroke-linecap:round;stroke-linejoin:round;stroke-miterlimit:10;" points="
					83.493,261.52 146.659,251.253 192.239,242.742 				"/>
				
					<line style="fill:none;stroke:#263238;stroke-linecap:round;stroke-linejoin:round;stroke-miterlimit:10;" x1="75.277" y1="293.604" x2="211.178" y2="267.623"/>
				<path style="fill:none;stroke:#263238;stroke-linecap:round;stroke-linejoin:round;stroke-miterlimit:10;" d="M121,255.5
					c0,0,22,22,21.5,25l-1,31.5"/>
				
					<line style="fill:none;stroke:#263238;stroke-linecap:round;stroke-linejoin:round;stroke-miterlimit:10;" x1="95.187" y1="322.713" x2="209.693" y2="297.702"/>
				<polyline style="fill:none;stroke:#263238;stroke-linecap:round;stroke-linejoin:round;stroke-miterlimit:10;" points="
					307.5,248.5 307.5,190 358.5,207.5 358.5,287.5 				"/>
				
					<line style="fill:none;stroke:#263238;stroke-linecap:round;stroke-linejoin:round;stroke-miterlimit:10;" x1="307" y1="253.667" x2="307" y2="309"/>
				<polyline style="fill:none;stroke:#263238;stroke-linecap:round;stroke-linejoin:round;stroke-miterlimit:10;" points="
					358.5,207.5 399.5,197.5 399.5,280 				"/>
				<polygon style="fill:none;stroke:#263238;stroke-linecap:round;stroke-linejoin:round;stroke-miterlimit:10;" points="
					307.5,190 351.5,180.5 399.5,197.5 358.5,207.5 				"/>
				<g>
					
						<line style="fill:none;stroke:#263238;stroke-linecap:round;stroke-linejoin:round;stroke-miterlimit:10;" x1="331.5" y1="198.5" x2="331.5" y2="299.667"/>
					<path style="fill:#263238;" d="M337.565,245.42c0,1.864-0.814,3.374-1.817,3.374c-1.004,0-1.817-1.511-1.817-3.374
						s0.814-3.374,1.817-3.374C336.752,242.045,337.565,243.556,337.565,245.42z"/>
					<path style="fill:#263238;" d="M328.999,242.305c0,1.864-0.813,3.374-1.817,3.374s-1.817-1.511-1.817-3.374
						s0.813-3.374,1.817-3.374S328.999,240.441,328.999,242.305z"/>
				</g>
			</g>
		</g>
		
			<line style="fill:none;stroke:#263238;stroke-linecap:round;stroke-linejoin:round;stroke-miterlimit:10;" x1="217.667" y1="274.333" x2="290.333" y2="311"/>
	</g>
</g>
<g id="Plants">
	<path style="fill:#263238;" d="M360.095,155.63c-2.134,2.463-2.697,5.135-2.814,5.85l-5.648,3.166v-14.967l0.111,0.152l8.995-6.585
		c1.134,0.178,5.501,0.672,9.48-1.471c4.618-2.487,7.993-11.013,7.993-11.013s-11.013-1.243-14.743,3.375
		c-3.028,3.749-3.13,7.38-3.061,8.614l-8.776,6.424v-11.054c1.056-0.467,5.29-2.645,6.685-8.07
		c1.599-6.217-6.927-18.473-6.927-18.473s-8.881,12.611-7.105,19.006c1.505,5.419,5.55,7.133,6.753,7.532v23.97l-6.334-5.279
		c0.146-1.261,0.258-5.212-3.261-9.171c-4.263-4.796-15.631-4.441-15.631-4.441s4.796,9.592,8.881,12.789
		c3.57,2.794,8.496,1.654,9.682,1.322l6.663,5.552v7.288h-9.902l4.04,25.25h12.12l4.04-25.25h-9.704v-4.82l6.204-3.478
		c1.51,0.419,5.725,1.284,9.718-0.713c4.973-2.487,9.059-7.816,9.059-7.816S364.713,150.301,360.095,155.63z"/>
</g>
<g id="Device">
	<g>
		<path style="fill:#263238;" d="M274.809,347.964l-43.645,12.774c-0.925,0.271-1.169,1.467-0.423,2.078l16.29,13.349
			c1.93,1.581,4.533,2.069,6.904,1.294l40.005-13.078c0.884-0.289,1.117-1.43,0.417-2.042l-15.376-13.454
			C277.839,347.884,276.265,347.538,274.809,347.964z"/>
		<path style="fill:#FFFFFF;stroke:#263238;stroke-linecap:round;stroke-linejoin:round;stroke-miterlimit:10;" d="M253.551,348.716
			c-4.961,2.178-6.876,8.358-3.633,12.698c0.029,0.038,0.058,0.077,0.087,0.115c2.937,3.818,17.621,5.874,24.375,4.111
			c6.755-1.762,7.76-6.614,3.524-10.279c-2.59-2.241-12.041-7.342-19.089-7.636C256.789,347.642,255.029,348.068,253.551,348.716z"
			/>
		<path style="fill:#C6FF00;stroke:#263238;stroke-linecap:round;stroke-linejoin:round;stroke-miterlimit:10;" d="M320,369.5
			l-31.796-27.766c-1.588-1.387-0.997-3.984,1.035-4.547l64.481-17.863c2.995-0.83,6.207-0.142,8.601,1.841L393.5,347L320,369.5z"/>
		<g>
			<polygon style="fill:#263238;" points="354.154,343.87 356.671,346.073 362.127,344.637 359.582,342.41 			"/>
			<polygon style="fill:#263238;" points="342.322,333.517 347.814,332.113 345.357,329.964 339.888,331.387 			"/>
			<polygon style="fill:#263238;" points="346.527,329.659 348.988,331.813 354.481,330.409 351.997,328.236 			"/>
			<polygon style="fill:#263238;" points="356.568,330.907 359.203,333.213 364.161,331.945 361.418,329.667 			"/>
			<polygon style="fill:#263238;" points="360.116,334.012 362.751,336.317 367.855,335.013 365.111,332.734 			"/>
			<polygon style="fill:#263238;" points="372.559,338.919 367.331,340.325 369.916,342.587 375.276,341.177 			"/>
			<polygon style="fill:#263238;" points="366.171,340.638 360.743,342.098 363.294,344.33 368.749,342.894 			"/>
			<polygon style="fill:#263238;" points="363.664,337.116 366.427,339.534 371.617,338.138 368.805,335.802 			"/>
			<polygon style="fill:#263238;" points="352.536,334.917 358.028,333.513 355.393,331.207 349.901,332.612 			"/>
			<polygon style="fill:#263238;" points="332.323,348.708 329.158,345.939 323.667,347.343 326.896,350.168 			"/>
			<polygon style="fill:#263238;" points="328.245,345.14 325.611,342.834 320.119,344.238 322.754,346.544 			"/>
			<polygon style="fill:#263238;" points="324.698,342.035 322.062,339.73 316.571,341.134 319.206,343.44 			"/>
			<polygon style="fill:#263238;" points="335.656,335.222 341.148,333.818 338.718,331.692 333.249,333.115 			"/>
			<polygon style="fill:#263238;" points="335.637,351.608 333.228,349.499 327.8,350.96 330.182,353.043 			"/>
			<polygon style="fill:#263238;" points="328.99,336.926 334.482,335.522 332.079,333.42 326.61,334.843 			"/>
			<polygon style="fill:#263238;" points="322.324,338.631 327.816,337.226 325.44,335.148 319.971,336.571 			"/>
			<polygon style="fill:#263238;" points="315.658,340.335 321.15,338.931 318.801,336.876 313.331,338.299 			"/>
			<polygon style="fill:#263238;" points="343.665,342.23 346.661,344.851 352.089,343.391 349.157,340.825 			"/>
			<polygon style="fill:#263238;" points="343.235,334.316 345.87,336.622 351.362,335.218 348.727,332.912 			"/>
			<polygon style="fill:#263238;" points="363.035,345.431 357.579,346.867 360.37,349.309 365.79,347.842 			"/>
			<polygon style="fill:#263238;" points="349.418,339.726 354.91,338.322 352.275,336.016 346.783,337.421 			"/>
			<polygon style="fill:#263238;" points="339.204,338.326 344.696,336.922 342.061,334.616 336.569,336.021 			"/>
			<polygon style="fill:#263238;" points="353.449,335.716 356.084,338.022 361.576,336.618 358.941,334.312 			"/>
			<polygon style="fill:#263238;" points="339.472,354.963 336.545,352.402 331.09,353.838 334.052,356.43 			"/>
			<polygon style="fill:#263238;" points="355.823,339.121 350.331,340.525 353.25,343.079 358.677,341.619 			"/>
			<polygon style="fill:#263238;" points="362.489,337.417 356.997,338.821 359.838,341.306 365.266,339.846 			"/>
			<polygon style="fill:#263238;" points="332.538,340.031 338.03,338.627 335.395,336.321 329.903,337.725 			"/>
			<polygon style="fill:#263238;" points="349.79,348.917 344.335,350.353 347.211,352.869 352.631,351.403 			"/>
			<polygon style="fill:#263238;" points="356.413,347.174 350.957,348.61 353.79,351.089 359.21,349.622 			"/>
			<polygon style="fill:#263238;" points="325.872,341.735 331.364,340.331 328.729,338.025 323.237,339.429 			"/>
			<polygon style="fill:#263238;" points="346.052,353.183 343.168,350.659 337.712,352.095 340.631,354.65 			"/>
			<polygon style="fill:#263238;" points="352.993,344.182 347.565,345.642 350.048,347.815 355.505,346.379 			"/>
			<polygon style="fill:#263238;" points="334.912,343.435 332.277,341.13 326.785,342.534 329.42,344.84 			"/>
			<polygon style="fill:#263238;" points="338.912,346.935 335.825,344.234 330.333,345.638 333.484,348.396 			"/>
			<polygon style="fill:#263238;" points="342.26,349.865 339.817,347.727 334.388,349.187 336.804,351.301 			"/>
			<polygon style="fill:#263238;" points="316.087,348.248 314.913,348.549 315.826,349.347 317,349.047 			"/>
			<polygon style="fill:#263238;" points="325.735,350.48 322.492,347.643 317,349.047 320.307,351.94 			"/>
			<polygon style="fill:#263238;" points="329.015,353.35 326.639,351.272 321.211,352.732 323.559,354.786 			"/>
			<polygon style="fill:#263238;" points="345.5,345.163 342.49,342.53 336.999,343.934 340.073,346.623 			"/>
			<polygon style="fill:#263238;" points="320.307,351.94 319.146,352.253 320.051,353.044 321.211,352.732 			"/>
			<polygon style="fill:#263238;" points="321.579,346.844 318.944,344.539 313.452,345.943 316.087,348.248 			"/>
			<polygon style="fill:#263238;" points="348.882,348.122 346.405,345.955 340.977,347.415 343.427,349.558 			"/>
			<polygon style="fill:#263238;" points="312.54,345.144 311.365,345.444 312.278,346.243 313.452,345.943 			"/>
			<polygon style="fill:#263238;" points="336.086,343.135 341.578,341.731 338.943,339.425 333.451,340.829 			"/>
			<polygon style="fill:#263238;" points="336.483,359.885 333.797,357.534 328.376,359.001 331.211,361.481 			"/>
			<polygon style="fill:#263238;" points="327.217,359.315 321.649,360.822 324.714,363.448 330.083,361.822 			"/>
			<polygon style="fill:#263238;" points="374.432,346.539 376.007,347.916 381.418,346.277 379.939,345.049 			"/>
			<polygon style="fill:#263238;" points="327.472,358.21 326.313,358.524 327.217,359.315 328.376,359.001 			"/>
			<polygon style="fill:#263238;" points="345.609,337.721 340.117,339.125 342.752,341.431 348.244,340.027 			"/>
			<polygon style="fill:#263238;" points="323.559,354.786 322.392,355.093 323.301,355.888 324.467,355.581 			"/>
			<polygon style="fill:#263238;" points="318.032,343.74 315.396,341.434 309.904,342.838 312.54,345.144 			"/>
			<polygon style="fill:#263238;" points="332.893,356.743 329.923,354.145 324.467,355.581 327.472,358.21 			"/>
			<polygon style="fill:#263238;" points="299.556,341.885 301.863,343.862 307.817,342.34 305.522,340.332 			"/>
			<polygon style="fill:#263238;" points="364.202,345.125 366.949,347.528 372.369,346.061 369.658,343.689 			"/>
			<polygon style="fill:#263238;" points="366.694,348.633 361.274,350.099 363.208,351.792 368.48,350.195 			"/>
			<polygon style="fill:#263238;" points="373.273,346.853 367.853,348.319 369.607,349.854 374.879,348.258 			"/>
			<polygon style="fill:#263238;" points="376.222,341.961 370.824,343.382 373.528,345.748 378.999,344.268 			"/>
			<polygon style="fill:#263238;" points="308.991,342.04 307.817,342.34 308.73,343.139 309.904,342.838 			"/>
			<polygon style="fill:#263238;" points="346.956,353.974 341.535,355.441 344.009,357.605 349.282,356.009 			"/>
			<polygon style="fill:#263238;" points="355.655,330.108 360.468,328.878 357.858,326.71 353.167,327.931 			"/>
			<polygon style="fill:#263238;" points="360.115,350.413 354.694,351.88 356.808,353.73 362.08,352.133 			"/>
			<polygon style="fill:#263238;" points="353.535,352.194 348.115,353.66 350.409,355.667 355.68,354.071 			"/>
			<polygon style="fill:#263238;" points="317.633,357.379 320.73,360.034 326.313,358.524 323.301,355.888 			"/>
			<polygon style="fill:#263238;" points="312.162,338.604 306.692,340.027 308.991,342.04 314.483,340.635 			"/>
			<polygon style="fill:#263238;" points="302.79,344.657 305.468,346.952 311.365,345.444 308.73,343.139 			"/>
			<polygon style="fill:#263238;" points="342.882,357.947 340.376,355.754 334.956,357.221 337.61,359.543 			"/>
			<polygon style="fill:#263238;" points="314.361,354.575 316.71,356.588 322.392,355.093 320.051,353.044 			"/>
			<polygon style="fill:#263238;" points="310,350.837 313.442,353.787 319.146,352.253 315.826,349.347 			"/>
			<polygon style="fill:#263238;" points="306.396,347.747 309.073,350.042 314.913,348.549 312.278,346.243 			"/>
		</g>
		<path style="fill:#C6FF00;stroke:#263238;stroke-linecap:round;stroke-linejoin:round;stroke-miterlimit:10;" d="M339.124,316.325
			L320,369.5l73.5-22.5l23.405-51.399c0.832-1.827-0.844-3.796-2.781-3.265l-69.704,19.091
			C341.963,312.099,339.987,313.927,339.124,316.325z"/>
		<path style="fill:#263238;" d="M377.532,326.178c0.962,2.292-0.735,5.189-3.79,6.471c-3.056,1.283-6.312,0.465-7.274-1.827
			c-0.962-2.292,0.735-5.189,3.79-6.471C373.314,323.068,376.57,323.886,377.532,326.178z"/>
	</g>
</g>
<g id="Papers">
	<g>
		<polygon style="fill:#FFFFFF;stroke:#263238;stroke-linecap:round;stroke-linejoin:round;stroke-miterlimit:10;" points="
			196.105,366.944 142.772,379.454 175.268,430.363 231.516,418.844 		"/>
		<g>
			<polygon style="fill:#FFFFFF;stroke:#263238;stroke-linecap:round;stroke-linejoin:round;stroke-miterlimit:10;" points="
				160,369 199,417.5 252,400.5 209,356 			"/>
			
				<line style="fill:none;stroke:#263238;stroke-linecap:round;stroke-linejoin:round;stroke-miterlimit:10;" x1="174.558" y1="376.167" x2="208.302" y2="366.19"/>
			
				<line style="fill:none;stroke:#263238;stroke-linecap:round;stroke-linejoin:round;stroke-miterlimit:10;" x1="179.75" y1="380.84" x2="213.493" y2="370.862"/>
			
				<line style="fill:none;stroke:#263238;stroke-linecap:round;stroke-linejoin:round;stroke-miterlimit:10;" x1="184.941" y1="385.512" x2="218.684" y2="375.535"/>
			
				<line style="fill:none;stroke:#263238;stroke-linecap:round;stroke-linejoin:round;stroke-miterlimit:10;" x1="190.132" y1="390.184" x2="223.876" y2="380.207"/>
			
				<line style="fill:none;stroke:#263238;stroke-linecap:round;stroke-linejoin:round;stroke-miterlimit:10;" x1="195.324" y1="394.856" x2="229.067" y2="384.879"/>
			
				<line style="fill:none;stroke:#263238;stroke-linecap:round;stroke-linejoin:round;stroke-miterlimit:10;" x1="200.515" y1="399.528" x2="234.258" y2="389.551"/>
			
				<line style="fill:none;stroke:#263238;stroke-linecap:round;stroke-linejoin:round;stroke-miterlimit:10;" x1="205.706" y1="404.2" x2="239.45" y2="394.223"/>
		</g>
	</g>
</g>
<g id="Character">
	<g>
		<path style="fill:#263238;stroke:#263238;stroke-linecap:round;stroke-linejoin:round;stroke-miterlimit:10;" d="M222.5,225.5
			l-71,15.5c0,0,3.5,56,9.5,79c0,0,6.246,22.139,9.81,29.013l66.953-17.566C237.763,331.447,228,305.5,222.5,225.5z"/>
		<g>
			<g>
				<path style="fill:#C6FF00;stroke:#263238;stroke-linecap:round;stroke-linejoin:round;stroke-miterlimit:10;" d="
					M272.405,233.541c-5.511-4.93-12.181-3.77-18.852-6.381c-5.217-2.041-11.853-3.728-14.498-4.366
					c-0.737-0.178-1.164-0.274-1.164-0.274s-2.9-6.091-8.121-5.221c-5.221,0.87-26.973,15.662-28.713,19.722
					c-1.74,4.06-1.74,42.635-1.45,55.976c0.197,9.082,2.011,16.277,5.343,21.23l-5.283,27.439l73.899-19.666
					c0,0-5.045-2.605-5.221-17.402c-0.034-2.856,1.16-10.441,2.61-19.142c1.45-8.701,0.87-17.402,0.87-17.402s3.48,1.16,7.541,3.19
					c4.06,2.03,28.133,11.891,28.133,11.891l6.961-12.761C314.46,270.375,277.916,238.472,272.405,233.541z"/>
				
					<line style="fill:none;stroke:#263238;stroke-linecap:round;stroke-linejoin:round;stroke-miterlimit:10;" x1="89.667" y1="370.333" x2="426.5" y2="282.5"/>
				<path style="fill:none;stroke:#263238;stroke-linecap:round;stroke-linejoin:round;stroke-miterlimit:10;" d="M206.213,290.233
					c0,0,6.706-15.779,9.862-29.19"/>
				<path style="fill:none;stroke:#263238;stroke-linecap:round;stroke-linejoin:round;stroke-miterlimit:10;" d="M203.846,294.967
					c0,0,12.228-12.228,15.778-24.457"/>
				<path style="fill:none;stroke:#263238;stroke-linecap:round;stroke-linejoin:round;stroke-miterlimit:10;" d="M238.93,306.417
					c0,0,11.94-6.229,17.131-11.94"/>
			</g>
			<path style="fill:none;stroke:#263238;stroke-linecap:round;stroke-linejoin:round;stroke-miterlimit:10;" d="M217.803,235.507
				c0,0,0.656,0.064,2.976,4.705c2.32,4.64,5.221,12.181,5.221,12.181l5.221-5.221l4.93,6.671"/>
			<path style="fill:none;stroke:#263238;stroke-linecap:round;stroke-linejoin:round;stroke-miterlimit:10;" d="M248.785,229.311
				c0,0,2.158,2.49,3.898,8.001s1.74,6.671,1.74,6.671l-6.961-1.45l-1.16,9.861"/>
			<polyline style="fill:none;stroke:#263238;stroke-linecap:round;stroke-linejoin:round;stroke-miterlimit:10;" points="
				270.665,251.233 271.825,268.055 274.435,246.592 			"/>
		</g>
		<path style="fill:#FFFFFF;stroke:#263238;stroke-linecap:round;stroke-linejoin:round;stroke-miterlimit:10;" d="M242.113,217.088
			l-2.157,7.766c0,0,3.038,5.799,4.404,13.309c1.77,9.737-0.089,28.975-0.089,28.975s-8.198-18.121-12.944-26.751
			c-4.746-8.629-6.472-12.944-6.903-17.258c-0.431-4.315,2.589-15.533,3.452-16.827
			C228.737,205.007,242.113,217.088,242.113,217.088z"/>
		<g>
			<path style="fill:#263238;stroke:#263238;stroke-linecap:round;stroke-linejoin:round;stroke-miterlimit:10;" d="
				M258.508,148.917c0,0-14.67-13.807-35.38-6.04c-20.71,7.766-21.142,31.928-21.142,45.735c0,13.807-5.744,36.406-16.531,46.761
				c-10.786,10.355-14.966,21.41-12.377,33.059c2.589,11.649,13.375,18.553,21.142,17.69c7.766-0.863,3.02-35.38,10.786-42.283
				c7.766-6.903,17.69-12.944,24.162-32.36c0,0,5.609-6.472,7.335-15.964c1.726-9.492,8.198-24.593,15.101-25.888
				c6.903-1.294,9.061,19.416,6.472,27.182c-2.589,7.766-15.533,16.827-15.964,20.279c-0.432,3.452-2.157,7.766-2.157,7.766
				s7.507,4.627,20.71,6.041c3.432,0.367,5.609,0,5.609,0S269.351,228.246,278,214c8.5-14,0.492-48.802-9-57
				C259.508,148.802,258.508,148.917,258.508,148.917z"/>
			<g>
				<path style="fill:none;stroke:#FFFFFF;stroke-linecap:round;stroke-linejoin:round;stroke-miterlimit:10;" d="M188.097,239.648
					c-2.57,1.434-4.329,2.121-4.329,2.121"/>
				<path style="fill:none;stroke:#FFFFFF;stroke-linecap:round;stroke-linejoin:round;stroke-miterlimit:10;" d="M184.423,236.66
					c0,0-12.046,6.684-11.638,24.63C173.055,273.199,181,281,181,281"/>
				<path style="fill:none;stroke:#FFFFFF;stroke-linecap:round;stroke-linejoin:round;stroke-miterlimit:10;" d="M217.077,172.534
					c-4.571,17.762-6.469,40.414-12.739,51.699c-2.9,5.219-7.108,9.192-10.964,12.025"/>
				<path style="fill:none;stroke:#FFFFFF;stroke-linecap:round;stroke-linejoin:round;stroke-miterlimit:10;" d="M260.315,162.861
					c0,0,1.012-5.395-5.395-10.791c-6.091-5.13-28.948-2.029-35.821,13.938"/>
				<path style="fill:none;stroke:#FFFFFF;stroke-linecap:round;stroke-linejoin:round;stroke-miterlimit:10;" d="M242.651,142.997
					c-4.124-1.442-9.461-2.063-15.383,0.305c-13.488,5.395-20.57,16.523-21.919,28.663c-1.349,12.14,0.337,31.023-5.058,42.826"/>
				<path style="fill:none;stroke:#FFFFFF;stroke-linecap:round;stroke-linejoin:round;stroke-miterlimit:10;" d="M251.21,148.024
					c0,0-1.252-1.212-3.449-2.573"/>
				<path style="fill:none;stroke:#FFFFFF;stroke-linecap:round;stroke-linejoin:round;stroke-miterlimit:10;" d="M277.85,210.745
					c0.352-1.736,0.592-3.431,0.733-5.082"/>
				<path style="fill:none;stroke:#FFFFFF;stroke-linecap:round;stroke-linejoin:round;stroke-miterlimit:10;" d="M278.727,200.977
					c-0.509-20.926-16.389-33.733-16.389-33.733"/>
			</g>
		</g>
		<g>
			<path style="fill:#FFFFFF;stroke:#263238;stroke-linecap:round;stroke-linejoin:round;stroke-miterlimit:10;" d="
				M259.802,165.744c0,0,7.335,15.964,3.883,28.477c-3.452,12.512-10.787,22.867-15.964,25.456
				c-5.178,2.589-18.553-8.198-18.553-8.198s4.315-9.492,4.315-19.416c0-9.924,3.452-22.005,11.218-25.888
				C252.468,162.292,259.802,165.744,259.802,165.744z"/>
			<path style="fill:none;stroke:#263238;stroke-linecap:round;stroke-linejoin:round;stroke-miterlimit:10;" d="M250.987,190.981
				c0,0-0.432,3.21,0.4,5.498c0.832,2.288,2.912,3.744,1.248,4.16c-1.664,0.416-4.784,0.208-4.784,0.208"/>
			<path style="fill:none;stroke:#263238;stroke-linecap:round;stroke-linejoin:round;stroke-miterlimit:10;" d="M245.28,207.45
				c0,0,1.957,1.304,4.892,0.815"/>
			<path style="fill:#263238;" d="M243.9,191.072c0,1.149-0.512,2.08-1.144,2.08c-0.632,0-1.144-0.931-1.144-2.08
				c0-1.149,0.512-2.08,1.144-2.08C243.388,188.992,243.9,189.923,243.9,191.072z"/>
			<path style="fill:#263238;" d="M258.182,190.416c0,1.149-0.512,2.08-1.144,2.08c-0.632,0-1.144-0.931-1.144-2.08
				c0-1.149,0.512-2.08,1.144-2.08C257.67,188.336,258.182,189.268,258.182,190.416z"/>
			<g>
				<path style="fill:#263238;" d="M261.377,184.31c-0.36,0.098-0.761-0.01-1.021-0.312c-0.79-0.917-1.587-1.361-2.367-1.318
					c-1.436,0.081-2.588,1.699-2.599,1.715c-0.309,0.456-0.934,0.572-1.39,0.259c-0.455-0.312-0.572-0.935-0.259-1.39
					c0.068-0.1,1.705-2.447,4.138-2.581c1.433-0.079,2.776,0.597,3.993,2.008c0.361,0.419,0.313,1.05-0.105,1.411
					C261.65,184.203,261.517,184.272,261.377,184.31z"/>
			</g>
			<g>
				<path style="fill:#263238;" d="M245.843,185c-0.263,0-0.528-0.085-0.746-0.257c-3.539-2.802-6.349-0.376-6.467-0.272
					c-0.468,0.419-1.209,0.395-1.649-0.054c-0.44-0.448-0.414-1.15,0.056-1.568c1.52-1.349,5.471-3.045,9.554,0.189
					c0.495,0.392,0.562,1.091,0.149,1.562C246.509,184.864,246.177,185,245.843,185z"/>
			</g>
			<path style="fill:none;stroke:#263238;stroke-linecap:round;stroke-linejoin:round;stroke-miterlimit:10;" d="M248.215,191.604
				c0,3.497-2.835,6.333-6.333,6.333c-3.498,0-6.333-2.835-6.333-6.333s2.835-6.333,6.333-6.333
				C245.38,185.271,248.215,188.107,248.215,191.604z"/>
			
				<line style="fill:none;stroke:#263238;stroke-linecap:round;stroke-linejoin:round;stroke-miterlimit:10;" x1="235.66" y1="192.286" x2="233.703" y2="191.47"/>
			<path style="fill:none;stroke:#263238;stroke-linecap:round;stroke-linejoin:round;stroke-miterlimit:10;" d="M264.409,190.476
				c0,3.497-2.835,6.333-6.333,6.333s-6.333-2.835-6.333-6.333s2.835-6.333,6.333-6.333S264.409,186.979,264.409,190.476z"/>
			<path style="fill:none;stroke:#263238;stroke-linecap:round;stroke-linejoin:round;stroke-miterlimit:10;" d="M248.215,191.604
				c0,0,1.957-2.417,3.587,0.355"/>
		</g>
		<path style="fill:#C6FF00;stroke:#263238;stroke-linecap:round;stroke-linejoin:round;stroke-miterlimit:10;" d="M204.596,312.896
			c0,0,2.393-19.028,3.404-30.896c1.011-11.868,2.077-38.533-5-41.5s-14.916-0.788-18.623,17.673
			c-3.707,18.461-4.044,60.327-4.044,60.327L204.596,312.896z"/>
		<g>
			<path style="fill:#FFFFFF;stroke:#263238;stroke-linecap:round;stroke-linejoin:round;stroke-miterlimit:10;" d="
				M208.513,323.105c0,0,33.179,23.927,36.369,23.927c3.19,0,13.921-3.77,18.272-2.61c4.35,1.16,8.991,10.151,9.861,10.731
				c0.87,0.58,2.32,2.32,0.87,3.19c-1.45,0.87-10.151-2.9-11.601-2.9c-1.45,0-2.32-0.58-2.32-0.58l-3.77-0.87
				c0,0,10.441,5.221,11.311,5.511c0.87,0.29,0.29,1.45-2.61,1.45c-2.9,0-6.381-1.74-8.411-2.32c-2.03-0.58-2.61-1.16-6.671-1.16
				c-4.06,0-11.601-4.06-11.601-4.06s-33.026-10.503-40.567-12.824c-7.541-2.32-14.123-8.345-14.413-9.215
				C182.942,330.505,200.682,323.396,208.513,323.105z"/>
			<path style="fill:none;stroke:#263238;stroke-linecap:round;stroke-linejoin:round;stroke-miterlimit:10;" d="M258.603,349.332
				c0,0,11.104,3.61,14.412,5.822"/>
			<path style="fill:none;stroke:#263238;stroke-linecap:round;stroke-linejoin:round;stroke-miterlimit:10;" d="M260.021,346.26
				c0,0,6.379,0.709,9.215,3.308"/>
		</g>
		<path style="fill:#C6FF00;stroke:#263238;stroke-linecap:round;stroke-linejoin:round;stroke-miterlimit:10;" d="M203.249,306.429
			c0,0-20.141,3.889-23.041,5.919c-2.9,2.03-2.273,5.541-1.403,7.571c0.87,2.03,0.87,12.181,4.061,14.502
			c1.049,0.763,20.882-6.091,24.653-6.961c3.771-0.87,4.432-6.239,2.982-11.46C209.05,310.779,209.05,303.239,203.249,306.429z"/>
		<path style="fill:#C6FF00;stroke:#263238;stroke-linecap:round;stroke-linejoin:round;stroke-miterlimit:10;" d="M297.058,260.804
			c0,0-5.801,9.281-6.091,14.212c-0.29,4.931,0.87,5.221,2.9,6.671c2.03,1.45,11.311,5.511,17.402,6.091
			c6.091,0.58,11.891-12.181,12.181-16.242c0.29-4.06-8.701-10.441-15.082-13.051C301.988,255.874,297.348,258.484,297.058,260.804z
			"/>
		<path style="fill:#FFFFFF;stroke:#263238;stroke-linecap:round;stroke-linejoin:round;stroke-miterlimit:10;" d="M286.037,235.571
			c0,0,37.124,31.324,41.185,37.994c4.06,6.671-2.9,12.471-8.121,12.761c-5.221,0.29-9.281-5.221-14.502-11.021
			c-5.221-5.801-24.653-36.254-24.653-36.254L286.037,235.571z"/>
		<g>
			<g>
				<path style="fill:#FFFFFF;stroke:#263238;stroke-linecap:round;stroke-linejoin:round;stroke-miterlimit:10;" d="
					M280.236,221.94c0,0-4.93,14.501-4.93,16.822c0,2.32,3.19,3.77,6.091,3.77c2.9,0,5.511-4.06,7.251-8.991
					c1.74-4.93,3.77-11.021,1.74-12.471C288.357,219.62,280.816,220.78,280.236,221.94z"/>
				
					<line style="fill:none;stroke:#263238;stroke-linecap:round;stroke-linejoin:round;stroke-miterlimit:10;" x1="279.076" y1="226.29" x2="290.387" y2="227.45"/>
				
					<line style="fill:none;stroke:#263238;stroke-linecap:round;stroke-linejoin:round;stroke-miterlimit:10;" x1="277.916" y1="231.801" x2="288.647" y2="233.541"/>
				
					<line style="fill:none;stroke:#263238;stroke-linecap:round;stroke-linejoin:round;stroke-miterlimit:10;" x1="276.176" y1="235.861" x2="286.037" y2="238.182"/>
			</g>
			<path style="fill:#FFFFFF;stroke:#263238;stroke-linecap:round;stroke-linejoin:round;stroke-miterlimit:10;" d="
				M285.696,217.385c-0.649-0.018-1.29-0.085-1.931-0.208c-2.274-0.436-7.385-1.18-7.595,0.893c-0.271,2.669,0,4.67,1.896,4.67
				c1.896,0,5.96,0,8.398,0c2.438,0,3.251-1.668,2.709-3.669C288.796,217.679,286.849,217.416,285.696,217.385z"/>
		</g>
		<path style="fill:none;stroke:#263238;stroke-miterlimit:10;" d="M239.955,224.854c0,0-0.289,4.479,0.045,7.479"/>
		<g>
			<path style="fill:#FFFFFF;stroke:#263238;stroke-linecap:round;stroke-linejoin:round;stroke-miterlimit:10;" d="
				M271.785,238.539h-8.946c-2.71,0-5.01-1.989-5.401-4.671l-2.066-20.132h23.878l-2.066,20.132
				C276.795,236.55,274.495,238.539,271.785,238.539z"/>
			<path style="opacity:0.37;fill:#FFFFFF;" d="M267.839,213.286c-0.246-1.219-1.546-2.599-2.851-4.339
				c-2.367-3.156,36.29-1.184,41.024-2.761c4.733-1.578-1.183-1.578-1.972-5.128c-0.789-3.55,9.467,0.395,19.723-0.394
				c10.256-0.789,6.706-3.55-6.311-6.311c-13.017-2.761-26.429,1.183-21.695,5.522c4.734,4.339-2.367,2.761-18.145,2.761
				s-16.567,2.761-18.145,8.284c-0.274,0.96-0.76,1.731-1.36,2.367H267.839z"/>
		</g>
	</g>
</g>
</svg>
