<?xml version="1.0" encoding="utf-8"?>
<!-- Generator: Adobe Illustrator 27.5.0, SVG Export Plug-In . SVG Version: 6.00 Build 0)  -->
<svg version="1.1" xmlns="http://www.w3.org/2000/svg" xmlns:xlink="http://www.w3.org/1999/xlink" x="0px" y="0px"
	 viewBox="0 0 500 500" style="enable-background:new 0 0 500 500;" xml:space="preserve">
<g id="Background_Simple">
	<g>
		<path style="fill:#C6FF00;" d="M305.967,61.885c0,0-64.207-17.211-121.922,23.153c-57.715,40.364-81.971,113.171-103.178,171.636
			c-21.207,58.465-0.678,114.523,48.311,136.871s77.08-18.726,142.231-25.896c65.151-7.17,83.592,0.809,134.351-40.739
			c50.76-41.548,52.418-130.089,3.635-191.549C360.612,73.902,305.967,61.885,305.967,61.885z"/>
		<path style="opacity:0.7;fill:#FFFFFF;" d="M305.967,61.885c0,0-64.207-17.211-121.922,23.153
			c-57.715,40.364-81.971,113.171-103.178,171.636c-21.207,58.465-0.678,114.523,48.311,136.871s77.08-18.726,142.231-25.896
			c65.151-7.17,83.592,0.809,134.351-40.739c50.76-41.548,52.418-130.089,3.635-191.549
			C360.612,73.902,305.967,61.885,305.967,61.885z"/>
	</g>
</g>
<g id="Ground">
	<g>
		<ellipse style="fill:#C6FF00;" cx="260" cy="427" rx="198" ry="17"/>
		<ellipse style="opacity:0.4;fill:#FFFFFF;" cx="260" cy="427" rx="198" ry="17"/>
	</g>
</g>
<g id="Picture">
	<g>
		<g>
			<line style="fill:none;stroke:#263238;stroke-miterlimit:10;" x1="79.155" y1="408.152" x2="424.07" y2="408.152"/>
			<line style="fill:none;stroke:#263238;stroke-miterlimit:10;" x1="79.155" y1="319.543" x2="424.07" y2="319.543"/>
			<line style="fill:none;stroke:#263238;stroke-miterlimit:10;" x1="79.155" y1="312.727" x2="424.07" y2="312.727"/>
		</g>
		<g>
			<path style="fill:#FFFFFF;" d="M210.561,285.743h-85.005V84.856h85.005V285.743z M301.805,84.856H216.8v200.887h85.005V84.856z
				 M393.048,84.856h-85.005v200.887h85.005V84.856z"/>
			<path style="fill:#C6FF00;" d="M210.561,285.743h-85.005v-2.66c11.516-10.495,39.256-30.903,85.005-36.213V285.743z
				 M393.048,221.404c-20.635,13.42-49.541,19.463-85.005,22.131v42.209h85.005V221.404z M301.805,243.966
				c-20.847,1.318-43.826,1.6-68.628,1.6c-5.692,0-11.132,0.258-16.377,0.69v39.487h85.005V243.966z M210.561,207.638v-90.145
				c-23.124-14.233-51.7-25.556-71.924-32.637h-13.08v146.522C150.281,222.95,184.332,217.994,210.561,207.638z M301.805,194.249
				c-18.408,6.911-37.488,12.02-57.348,15.067c-1.343,0.206-2.737,0.434-3.879,1.314c-8.419,6.545,26.865,8.691,30.664,8.659
				c10.3-0.085,20.485-0.929,30.563-2.402V194.249z M249.554,168.863c2.358-17.487-12.283-33.63-32.754-47.363v83.502
				C234.312,197.04,247.239,186.033,249.554,168.863z M393.048,142.474c-26.843,20.522-55.029,37.336-85.005,49.352v24.064
				c29.22-5.05,57.525-15.352,85.005-28.341V142.474z M295.566,165.211c2.108,0.302,4.187,0.227,6.239-0.149V84.856h-67.774
				C242.158,106.768,265.158,160.851,295.566,165.211z M355.166,84.856h-47.122v78.081
				C328.632,152.648,345.648,112.317,355.166,84.856z"/>
			<path style="opacity:0.48;fill:#FFFFFF;" d="M210.561,285.743h-85.005v-2.66c11.516-10.495,39.256-30.903,85.005-36.213V285.743z
				 M393.048,221.404c-20.635,13.42-49.541,19.463-85.005,22.131v42.209h85.005V221.404z M301.805,243.966
				c-20.847,1.318-43.826,1.6-68.628,1.6c-5.692,0-11.132,0.258-16.377,0.69v39.487h85.005V243.966z M210.561,207.638v-90.145
				c-23.124-14.233-51.7-25.556-71.924-32.637h-13.08v146.522C150.281,222.95,184.332,217.994,210.561,207.638z M301.805,194.249
				c-18.408,6.911-37.488,12.02-57.348,15.067c-1.343,0.206-2.737,0.434-3.879,1.314c-8.419,6.545,26.865,8.691,30.664,8.659
				c10.3-0.085,20.485-0.929,30.563-2.402V194.249z M249.554,168.863c2.358-17.487-12.283-33.63-32.754-47.363v83.502
				C234.312,197.04,247.239,186.033,249.554,168.863z M393.048,142.474c-26.843,20.522-55.029,37.336-85.005,49.352v24.064
				c29.22-5.05,57.525-15.352,85.005-28.341V142.474z M295.566,165.211c2.108,0.302,4.187,0.227,6.239-0.149V84.856h-67.774
				C242.158,106.768,265.158,160.851,295.566,165.211z M355.166,84.856h-47.122v78.081
				C328.632,152.648,345.648,112.317,355.166,84.856z"/>
		</g>
	</g>
</g>
<g id="Plants">
	<g>
		<g>
			<g>
				<g>
					<path style="fill:#C6FF00;" d="M126.71,277.915c0,0,0-3.469-4.856-8.325c-4.856-4.856-7.978-7.631-7.978-7.631
						s-2.428,7.978,2.081,12.834c4.509,4.856,10.753,9.365,10.753,9.365V277.915z"/>
					<path style="fill:#C6FF00;" d="M119.663,299.577c0,0,0-3.469-4.856-8.325c-4.856-4.856-7.978-7.631-7.978-7.631
						s-2.428,7.978,2.081,12.834c4.509,4.856,10.753,9.365,10.753,9.365V299.577z"/>
					<path style="fill:#C6FF00;" d="M126.405,283.822c0,0,0.367-3.449,5.708-7.765c5.342-4.316,8.739-6.745,8.739-6.745
						s1.571,8.19-3.426,12.542c-4.997,4.352-11.682,8.177-11.682,8.177L126.405,283.822z"/>
					<path style="fill:#C6FF00;" d="M117.891,309.405c0,0,0.727-3.392,6.493-7.122c5.766-3.731,9.399-5.79,9.399-5.79
						s0.703,8.309-4.724,12.113c-5.426,3.803-12.476,6.904-12.476,6.904L117.891,309.405z"/>
					<path style="fill:#C6FF00;" d="M119.492,337.297c0,0,0-3.469,4.856-8.325c4.856-4.856,7.978-7.631,7.978-7.631
						s2.428,7.978-2.081,12.834c-4.509,4.856-10.752,9.365-10.752,9.365V337.297z"/>
					<path style="fill:#C6FF00;" d="M119.411,344.105c0,0,0.493-3.433-3.624-8.93c-4.117-5.497-6.812-8.687-6.812-8.687
						s-3.537,7.552,0.236,12.999c3.773,5.447,9.313,10.798,9.313,10.798L119.411,344.105z"/>
					<path style="fill:#C6FF00;" d="M114.622,364.282c0,0,0-3.469,4.856-8.324c4.856-4.856,7.978-7.631,7.978-7.631
						s2.428,7.978-2.081,12.834c-4.509,4.856-10.753,9.365-10.753,9.365V364.282z"/>
					<path style="fill:#C6FF00;" d="M117.865,382.575c0,0-0.879-3.355,2.589-9.283c3.468-5.928,5.785-9.402,5.785-9.402
						s4.369,7.103,1.237,12.942c-3.132,5.84-8.03,11.783-8.03,11.783L117.865,382.575z"/>
				</g>
				<path style="fill:none;stroke:#263238;stroke-width:0.5;stroke-linecap:round;stroke-linejoin:round;stroke-miterlimit:10;" d="
					M127.15,277.026c-0.284,3.707-0.706,7.543-1.33,10.77c-1.92,9.918-6.718,16.316-8.638,25.274
					c-1.92,8.958,3.591,20.498,2.115,32.004c-1.476,11.506-5.955,17.904-4.675,25.582s7.998,28.473,7.998,28.473"/>
				
					<line style="fill:none;stroke:#263238;stroke-width:0.5;stroke-linecap:round;stroke-linejoin:round;stroke-miterlimit:10;" x1="126.357" y1="286.128" x2="131.59" y2="282.112"/>
				
					<line style="fill:none;stroke:#263238;stroke-width:0.5;stroke-linecap:round;stroke-linejoin:round;stroke-miterlimit:10;" x1="126.601" y1="281.503" x2="124.41" y2="277.609"/>
				<path style="fill:none;stroke:#263238;stroke-width:0.5;stroke-linecap:round;stroke-linejoin:round;stroke-miterlimit:10;" d="
					M117.473,312.658c0,0,4.381-3.286,8.884-6.572"/>
				<path style="fill:none;stroke:#263238;stroke-width:0.5;stroke-linecap:round;stroke-linejoin:round;stroke-miterlimit:10;" d="
					M119.663,305.82c0,0-3.65-7.157-7.788-11.903"/>
				<path style="fill:none;stroke:#263238;stroke-width:0.5;stroke-linecap:round;stroke-linejoin:round;stroke-miterlimit:10;" d="
					M119.664,342.231c0,0,3.408-6.693,9.371-12.535"/>
				<path style="fill:none;stroke:#263238;stroke-width:0.5;stroke-linecap:round;stroke-linejoin:round;stroke-miterlimit:10;" d="
					M118.812,347.099c0,0-2.191-5.233-4.746-9.006c-2.556-3.773-2.921-4.259-2.921-4.259"/>
				<path style="fill:none;stroke:#263238;stroke-width:0.5;stroke-linecap:round;stroke-linejoin:round;stroke-miterlimit:10;" d="
					M114.623,370.656c0,0,1.755-4.45,3.946-7.979c2.19-3.529,5.111-6.694,5.111-6.694"/>
				<path style="fill:none;stroke:#263238;stroke-width:0.5;stroke-linecap:round;stroke-linejoin:round;stroke-miterlimit:10;" d="
					M119.446,388.615c0,0-0.513-4.153,1.313-7.683c1.826-3.529,3.894-8.154,4.746-9.979"/>
			</g>
			<g>
				<g>
					<path style="fill:#C6FF00;" d="M94.912,324.252c0,0-0.376-2.175,2.141-5.747c2.518-3.572,4.174-5.651,4.174-5.651
						s2.389,4.739,0.088,8.274c-2.3,3.535-5.726,7.04-5.726,7.04L94.912,324.252z"/>
					<path style="fill:#C6FF00;" d="M101.683,337.071c0,0-0.376-2.175,2.141-5.747c2.518-3.572,4.174-5.651,4.174-5.651
						s2.389,4.739,0.088,8.274c-2.3,3.535-5.726,7.04-5.726,7.04L101.683,337.071z"/>
					<path style="fill:#C6FF00;" d="M95.744,327.924c0,0-0.604-2.123-4.423-4.25c-3.818-2.126-6.213-3.281-6.213-3.281
						s-0.096,5.306,3.51,7.493c3.606,2.187,8.213,3.859,8.213,3.859L95.744,327.924z"/>
					<path style="fill:#C6FF00;" d="M103.86,343.042c0,0-0.824-2.048-4.844-3.761c-4.021-1.714-6.523-2.61-6.523-2.61
						s0.461,5.287,4.277,7.083c3.816,1.796,8.573,2.975,8.573,2.975L103.86,343.042z"/>
					<path style="fill:#C6FF00;" d="M105.885,360.706c0,0-0.377-2.175-3.949-4.693c-3.572-2.518-5.831-3.919-5.831-3.919
						s-0.657,5.266,2.698,7.822c3.355,2.556,7.759,4.705,7.759,4.705L105.885,360.706z"/>
					<path style="fill:#C6FF00;" d="M106.675,364.967c0,0-0.682-2.1,1.303-5.993c1.985-3.894,3.329-6.187,3.329-6.187
						s3.038,4.351,1.263,8.177c-1.775,3.826-4.668,7.782-4.668,7.782L106.675,364.967z"/>
					<path style="fill:#C6FF00;" d="M112.77,382.511c0,0,0.252-2.193,3.674-4.911c3.423-2.718,5.598-4.245,5.598-4.245
						s0.956,5.22-2.247,7.963c-3.203,2.743-7.478,5.141-7.478,5.141L112.77,382.511z"/>
					<path style="fill:#C6FF00;" d="M111.868,377.099c0,0-0.377-2.175-3.949-4.693c-3.572-2.518-5.831-3.919-5.831-3.919
						s-0.657,5.266,2.698,7.822c3.355,2.556,7.759,4.705,7.759,4.705L111.868,377.099z"/>
					<path style="fill:#C6FF00;" d="M111.82,388.922c0,0,0.187-2.2-2.632-5.54c-2.818-3.341-4.648-5.268-4.648-5.268
						s-1.969,4.928,0.629,8.25c2.598,3.322,6.315,6.517,6.315,6.517L111.82,388.922z"/>
				</g>
				<path style="fill:none;stroke:#263238;stroke-width:0.5;stroke-linecap:round;stroke-linejoin:round;stroke-miterlimit:10;" d="
					M94.539,323.743c0.581,2.294,1.261,4.654,2.003,6.609c2.28,6.011,5.984,9.502,8.16,14.911
					c2.176,5.409-0.027,13.244,2.148,20.299c2.174,7.055,5.678,10.581,5.709,15.535c0.031,4.954-1.924,18.723-1.924,18.723"/>
				
					<line style="fill:none;stroke:#263238;stroke-width:0.5;stroke-linecap:round;stroke-linejoin:round;stroke-miterlimit:10;" x1="96.025" y1="329.364" x2="92.307" y2="327.414"/>
				
					<line style="fill:none;stroke:#263238;stroke-width:0.5;stroke-linecap:round;stroke-linejoin:round;stroke-miterlimit:10;" x1="95.37" y1="326.491" x2="96.321" y2="323.811"/>
				<path style="fill:none;stroke:#263238;stroke-width:0.5;stroke-linecap:round;stroke-linejoin:round;stroke-miterlimit:10;" d="
					M104.476,345.037c0,0-3.104-1.585-6.285-3.157"/>
				<path style="fill:none;stroke:#263238;stroke-width:0.5;stroke-linecap:round;stroke-linejoin:round;stroke-miterlimit:10;" d="
					M102.36,340.986c0,0,1.512-4.884,3.591-8.31"/>
				<path style="fill:none;stroke:#263238;stroke-width:0.5;stroke-linecap:round;stroke-linejoin:round;stroke-miterlimit:10;" d="
					M106.313,363.819c0,0-2.864-3.827-7.237-6.843"/>
				<path style="fill:none;stroke:#263238;stroke-width:0.5;stroke-linecap:round;stroke-linejoin:round;stroke-miterlimit:10;" d="
					M107.375,366.779c0,0,0.806-3.519,1.998-6.163c1.193-2.643,1.369-2.988,1.369-2.988"/>
				<path style="fill:none;stroke:#263238;stroke-width:0.5;stroke-linecap:round;stroke-linejoin:round;stroke-miterlimit:10;" d="
					M112.391,384.854c0,0,2.464-3.02,3.998-4.15c1.534-1.13,2.596-2.257,2.596-2.257"/>
				<path style="fill:none;stroke:#263238;stroke-width:0.5;stroke-linecap:round;stroke-linejoin:round;stroke-miterlimit:10;" d="
					M112.559,381.096c0,0-1.584-2.6-3.34-4.575c-1.757-1.975-3.932-3.643-3.932-3.643"/>
				<path style="fill:none;stroke:#263238;stroke-width:0.5;stroke-linecap:round;stroke-linejoin:round;stroke-miterlimit:10;" d="
					M111.484,392.882c0,0-0.129-2.66-1.657-4.675c-1.528-2.015-3.327-4.69-4.06-5.743"/>
			</g>
		</g>
		<g>
			<path style="fill:#263238;" d="M129.439,423.746h-25.683c-1.68,0-3.041-1.362-3.041-3.041v-23.287h31.765v23.287
				C132.48,422.385,131.118,423.746,129.439,423.746z"/>
			<path style="fill:#263238;" d="M132.203,401.562h-31.489c-1.373,0-2.486-1.113-2.486-2.486l0,0c0-1.373,1.113-2.486,2.486-2.486
				h31.489c1.373,0,2.486,1.113,2.486,2.486l0,0C134.689,400.449,133.576,401.562,132.203,401.562z"/>
		</g>
	</g>
</g>
<g id="Character_2">
	<g>
		<path style="fill:#FFFFFF;stroke:#263238;stroke-linecap:round;stroke-linejoin:round;stroke-miterlimit:10;" d="M287.102,211.248
			c0,0-7.25,1-8.25,5s-5.75,31-7.75,36.25s-3,8.75-1.25,11.5s6,0,8.5-5.25s5-34.75,6.75-38.75S287.102,211.248,287.102,211.248z"/>
		<path style="fill:#C6FF00;stroke:#263238;stroke-linecap:round;stroke-linejoin:round;stroke-miterlimit:10;" d="M281.935,239.441
			c1.185-8.714,2.274-17.402,3.167-19.444c1.75-4,2-8.75,2-8.75s-7.25,1-8.25,5c-0.573,2.293-2.379,12.145-4.193,21.125
			C276.651,238.446,279.111,239.324,281.935,239.441z"/>
		<g>
			<path style="fill:#FFFFFF;stroke:#263238;stroke-linecap:round;stroke-linejoin:round;stroke-miterlimit:10;" d="
				M285.102,393.998l0.75,22.5c0,0-9,5.5-13.5,7.5s3.25,3.25,6,3.25s7.75-2,10.75-2s5.75,0.75,5.75-3.5s-0.5-28-0.5-28
				L285.102,393.998z"/>
			<path style="fill:#C6FF00;stroke:#263238;stroke-linecap:round;stroke-linejoin:round;stroke-miterlimit:10;" d="
				M294.852,421.748c0-0.34-0.003-0.818-0.009-1.386c-5.004,1.489-12.491,1.886-12.491,1.886l-2.654-2.123
				c-2.557,1.459-5.381,3-7.346,3.873c-4.5,2,3.25,3.25,6,3.25s7.75-2,10.75-2S294.852,425.998,294.852,421.748z"/>
		</g>
		<g>
			<path style="fill:#FFFFFF;stroke:#263238;stroke-linecap:round;stroke-linejoin:round;stroke-miterlimit:10;" d="
				M309.852,395.498c0,0,3.25,21.75,5.75,26.5s7,9,9,9.75s5.25-1.75,2.5-7s-7.5-9.75-8.75-13s1.25-17,1.25-17L309.852,395.498z"/>
			<path style="fill:#C6FF00;stroke:#263238;stroke-linecap:round;stroke-linejoin:round;stroke-miterlimit:10;" d="
				M324.602,431.748c2,0.75,5.25-1.75,2.5-7c-0.577-1.101-1.243-2.167-1.945-3.197c-0.761,0.202-3.651,0.912-5.805,0.697
				c-1.513-0.151-3.661-2.404-5.126-4.163c0.467,1.691,0.934,3.072,1.376,3.913C318.102,426.748,322.602,430.998,324.602,431.748z"
				/>
		</g>
		<g>
			<path style="fill:#263238;stroke:#263238;stroke-linecap:round;stroke-linejoin:round;stroke-miterlimit:10;" d="
				M278.602,263.498c0,0-1.5,13.5-2.5,23s-1.75,20.5-1.25,32.75s2.75,39.75,4.25,47.25s2,15.25,2,18.75s0.5,10,0.5,10s3.25,2,7.25,2
				s7.25-0.75,7.25-0.75s1-21.25,0-30.5s-0.5-41.75-0.25-46.75s1-21,1-21s3.5,24.5,5.5,36.75s3.75,62.25,3.75,62.25
				s4.25,1.25,8.75,1.25s8.75-2,8.75-2s-1.75-38.75-1.75-48.25s3.5-53.5,1.5-61.5s-6.25-21.25-6.25-21.25L278.602,263.498z"/>
			
				<line style="fill:none;stroke:#FFFFFF;stroke-linecap:round;stroke-linejoin:round;stroke-miterlimit:10;" x1="291.409" y1="288.162" x2="295.961" y2="300.453"/>
		</g>
		<g>
			<path style="fill:#C6FF00;stroke:#263238;stroke-linecap:round;stroke-linejoin:round;stroke-miterlimit:10;" d="
				M312.602,205.498c-7.5-2.25-12.75,0.5-12.75,0.5s-9,3.5-12.75,5.25c-3.258,1.521-3.736,7.726-4.461,13.755
				c-1.212,2.716-4.654,10.698-5.295,15.18c-0.34,2.379,0.407,4.56,1.68,6.264c-0.971,5.43-1.849,10.415-2.175,12.802
				c-0.75,5.5,0,7.25,5.5,8.25s34.75,0.5,35.5-0.5s-0.75-6.25,3.5-13.75s11.5-33.25,11.5-36.5S320.102,207.748,312.602,205.498z"/>
			
				<line style="fill:none;stroke:#263238;stroke-linecap:round;stroke-linejoin:round;stroke-miterlimit:10;" x1="325.488" y1="237.122" x2="319.831" y2="231.819"/>
			<path style="fill:none;stroke:#263238;stroke-linecap:round;stroke-linejoin:round;stroke-miterlimit:10;" d="M316.649,246.668
				c0,0-6.364,3.182-11.667,2.829"/>
		</g>
		<path style="fill:#C6FF00;stroke:#263238;stroke-linecap:round;stroke-linejoin:round;stroke-miterlimit:10;" d="M301.102,204.998
			c0,0-3.75,2.25-4,4.25s-6.25,7.75-6.25,7.75s6-3,7.75-3.5s7.5-5.5,5.75-8.25S301.102,204.998,301.102,204.998z"/>
		<path style="fill:#FFFFFF;stroke:#263238;stroke-linecap:round;stroke-linejoin:round;stroke-miterlimit:10;" d="M296.352,197.998
			c0,0,3,6.25,3,9.5s0,15.75,0,15.75s7.25-16.25,8.25-18.5s1-12.5,1-12.5S299.602,198.498,296.352,197.998z"/>
		<g>
			<path style="fill:#FFFFFF;stroke:#263238;stroke-linecap:round;stroke-linejoin:round;stroke-miterlimit:10;" d="
				M289.852,166.248c0,0-3,3.5-3,7.5s-0.059,10.789-1.809,12.289s-2.191,1.461-1.191,2.961s3.25,2,3.25,2s2.75,7.5,4.75,9
				s14.5-3.25,14.5-3.25s8.75-9.5,6.75-18.5S299.852,156.248,289.852,166.248z"/>
			<path style="fill:#263238;" d="M290.795,182.916c0,0.995-0.353,1.802-0.789,1.802s-0.789-0.807-0.789-1.802
				c0-0.995,0.353-1.802,0.789-1.802S290.795,181.92,290.795,182.916z"/>
			<path style="fill:none;stroke:#263238;stroke-linecap:round;stroke-linejoin:round;stroke-miterlimit:10;" d="M288.767,177.508
				c0,0,1.352-2.704,4.506,0.451"/>
			<path style="fill:none;stroke:#263238;stroke-linecap:round;stroke-linejoin:round;stroke-miterlimit:10;" d="M289.669,192.378
				c0,0,2.028,0.225,3.605-1.352"/>
		</g>
		<path style="fill:#C6FF00;stroke:#263238;stroke-linecap:round;stroke-linejoin:round;stroke-miterlimit:10;" d="M309.602,201.748
			l-5.5,7.75c0,0,0.5,3.5,3,7s4,7.75,4.25,6s-0.25-5.75,0.25-8s2.75-8.5,2.75-8.5L309.602,201.748z"/>
		<path style="fill:#C6FF00;stroke:#263238;stroke-linecap:round;stroke-linejoin:round;stroke-miterlimit:10;" d="M324.602,230.498
			c0,0,4.132,29.621,3.75,33c-0.832,7.36,10,11,11.5,6.25s-4.257-46.578-4.533-49.063c-0.52-4.679-5.069-8.089-8.319-8.839"/>
		<path style="fill:#FFFFFF;stroke:#263238;stroke-linecap:round;stroke-linejoin:round;stroke-miterlimit:10;" d="M339.852,269.748
			c0.922-2.92-0.899-19.855-2.503-33.046c-4.716,0.165-9.011,1.858-11.498,3.061c1.182,8.997,2.742,21.601,2.5,23.735
			C327.519,270.858,338.352,274.498,339.852,269.748z"/>
		<g>
			<path style="fill:#FFFFFF;stroke:#263238;stroke-linecap:round;stroke-linejoin:round;stroke-miterlimit:10;" d="
				M339.852,269.748c0,0-1-7.25-4.25-8.75s-11.75-0.25-17.5-1.5s-12-2.25-16.25-2.25s-13.25-0.25-13.5,0.75s4.75,3.75,9.25,4.25
				s10,0,11.25,0s17,6.75,22.25,9S338.852,272.748,339.852,269.748z"/>
			<polyline style="fill:none;stroke:#263238;stroke-linecap:round;stroke-linejoin:round;stroke-miterlimit:10;" points="
				295.804,258.38 300.743,260.199 303.343,260.199 			"/>
		</g>
		<g>
			<g>
				<path style="fill:#FFFFFF;stroke:#263238;stroke-linecap:round;stroke-linejoin:round;stroke-miterlimit:10;" d="
					M291.852,254.505c-2.854,0-4.64-0.879-5.209-5.429c-0.238-1.907,0.453-2.989,1.074-3.561c1.703-1.566,4.587-1.014,4.911-0.946
					c0.594,0.125,0.974,0.708,0.849,1.301c-0.125,0.593-0.71,0.97-1.3,0.849c-0.537-0.109-2.235-0.269-2.975,0.415
					c-0.13,0.121-0.527,0.488-0.38,1.669c0.452,3.616,1.119,3.685,4.599,3.435c0.616-0.026,1.131,0.413,1.174,1.018
					c0.043,0.605-0.413,1.131-1.018,1.174C292.966,254.474,292.39,254.505,291.852,254.505z"/>
			</g>
			<path style="fill:#FFFFFF;stroke:#263238;stroke-linecap:round;stroke-linejoin:round;stroke-miterlimit:10;" d="
				M299.949,257.016h-4.58c-1.489,0-2.729-1.139-2.857-2.622l-1.006-11.733h12.305l-1.006,11.733
				C302.678,255.876,301.437,257.016,299.949,257.016z"/>
			<polygon style="fill:#FFFFFF;stroke:#263238;stroke-linecap:round;stroke-linejoin:round;stroke-miterlimit:10;" points="
				304.785,257.785 290.019,257.785 288.174,256.247 306.631,256.247 			"/>
		</g>
		<path style="fill:#FFFFFF;stroke:#263238;stroke-linecap:round;stroke-linejoin:round;stroke-miterlimit:10;" d="M278.852,252.248
			c0,0-7,1.25-9.932,5.952c-0.748,1.2-1.068,8.298,1.682,10.548s6.75-4,8.75-7.5s4-7.75,4-7.75L278.852,252.248z"/>
		<path style="fill:#263238;stroke:#263238;stroke-linecap:round;stroke-linejoin:round;stroke-miterlimit:10;" d="M292.352,158.998
			c0,0-9.5-0.5-8,8s14,4.5,16.5,12.25s-4.25,25.75-3,26.5s16.75-2,18.75-5.25s5.5-12.25,3.5-25.5S306.602,154.748,292.352,158.998z"
			/>
		<g>
			<path style="fill:#FFFFFF;stroke:#263238;stroke-linecap:round;stroke-linejoin:round;stroke-miterlimit:10;" d="
				M278.052,250.956c0,0,1.049-6.458,2.299-7.958s8.851,4.137,8.851,4.137s1.036,1.993-0.185,2.437s-2.374-0.496-2.374-0.496
				s0.209,4.922-1.291,6.172s-6.75,0.25-7.75-1.25S278.052,250.956,278.052,250.956z"/>
			
				<line style="fill:none;stroke:#263238;stroke-linecap:round;stroke-linejoin:round;stroke-miterlimit:10;" x1="281.033" y1="245.846" x2="286.643" y2="249.076"/>
			<path style="fill:none;stroke:#263238;stroke-linecap:round;stroke-linejoin:round;stroke-miterlimit:10;" d="M279.223,248.507
				c0,0,3.939,2.555,6.92,2.768"/>
			<path style="fill:none;stroke:#263238;stroke-linecap:round;stroke-linejoin:round;stroke-miterlimit:10;" d="M278.052,250.956
				c0,0,3.194,2.342,7.878,2.555"/>
		</g>
	</g>
</g>
<g id="Character_1">
	<g>
		<path style="fill:#FFFFFF;stroke:#263238;stroke-linecap:round;stroke-linejoin:round;stroke-miterlimit:10;" d="M237.148,217.223
			c0,0,3.879,0.228,5.249,5.248c1.369,5.02,2.054,27.611,1.826,30.35c-0.228,2.738,1.597,7.987,3.423,9.584
			c1.826,1.597,5.248,3.195,3.423,4.336c-1.826,1.141-5.02,1.597-9.356-1.141c-4.336-2.738-6.389-8.215-7.302-13.691
			c-0.913-5.477,0.913-16.886-1.141-23.96C231.215,220.874,234.181,217.223,237.148,217.223z"/>
		<g>
			<path style="fill:#263238;stroke:#263238;stroke-linecap:round;stroke-linejoin:round;stroke-miterlimit:10;" d="
				M248.442,421.597c0,0,0,1.711-0.734,2.445c-0.733,0.734-17.114-0.733-18.825-0.733c-1.711,0-1.956-1.956-1.956-3.178
				C226.927,418.908,248.442,421.597,248.442,421.597z"/>
			<path style="fill:#FFFFFF;stroke:#263238;stroke-linecap:round;stroke-linejoin:round;stroke-miterlimit:10;" d="
				M245.508,330.893c0,0-3.667,16.136-4.89,21.27c-1.223,5.134,0.733,18.336-1.467,29.827c-2.2,11.491-4.156,26.649-4.156,28.849
				c0,2.2,13.936,9.779,13.447,10.757c-0.489,0.978-10.024-0.245-12.224-0.489c-2.2-0.244-5.868,0.245-7.579-0.489
				c-1.711-0.733-0.245-4.401,0-6.357c0.244-1.956,1.467-13.447,1.467-24.449c0-11.002-1.956-26.404-1.222-31.783
				c0.733-5.379,0.733-13.202,0.733-13.936c0-0.734-1.956-13.202-1.956-13.202S238.418,329.915,245.508,330.893z"/>
			<polygon style="fill:#C6FF00;stroke:#263238;stroke-linecap:round;stroke-linejoin:round;stroke-miterlimit:10;" points="
				238.907,414.263 236.218,421.108 240.863,422.086 243.552,417.441 			"/>
		</g>
		<g>
			<path style="fill:#263238;stroke:#263238;stroke-linecap:round;stroke-linejoin:round;stroke-miterlimit:10;" d="
				M194.078,413.074c0,0-3.086,7.586-3.343,10.286c-0.257,2.7,1.414,6.043,4.757,4.5c3.343-1.543,4.243-12.472,4.243-15.044
				S196.393,408.574,194.078,413.074z"/>
			<path style="fill:#FFFFFF;stroke:#263238;stroke-linecap:round;stroke-linejoin:round;stroke-miterlimit:10;" d="
				M212.992,333.582c0,0,8.557,14.669,7.09,17.848c-1.467,3.178-8.068,9.535-11.002,19.803
				c-2.934,10.268-11.98,34.472-14.425,41.318c-2.445,6.846-4.645,13.202-0.734,14.18c3.912,0.978,6.112-14.425,7.335-17.848
				c1.222-3.423,19.803-29.338,23.96-35.939c4.156-6.601,9.046-18.825,9.046-22.982c0-4.156-2.445-18.092-2.445-18.092
				S221.304,329.426,212.992,333.582z"/>
			<polygon style="fill:#C6FF00;stroke:#263238;stroke-linecap:round;stroke-linejoin:round;stroke-miterlimit:10;" points="
				192.455,418.663 198.567,420.13 199.79,416.219 193.433,414.507 			"/>
		</g>
		<g>
			<path style="fill:#263238;stroke:#263238;stroke-linecap:round;stroke-linejoin:round;stroke-miterlimit:10;" d="
				M207.613,264.149c0,0-10.024,11.735-11.246,29.338c-1.222,17.603,15.647,42.052,15.647,42.052s24.204-4.401,33.739-0.978
				c0,0,7.335-20.048,4.401-38.873c-2.934-18.825-12.224-33.495-12.224-33.495L207.613,264.149z"/>
			<path style="fill:none;stroke:#FFFFFF;stroke-linecap:round;stroke-linejoin:round;stroke-miterlimit:10;" d="M224.178,292.027
				c0,0,5.586,16.759,8.845,32.122"/>
			<path style="fill:none;stroke:#FFFFFF;stroke-linecap:round;stroke-linejoin:round;stroke-miterlimit:10;" d="M225.574,285.044
				c0,0,2.793,8.38,4.19,13.5"/>
		</g>
		<g>
			<path style="fill:#FFFFFF;stroke:#263238;stroke-linecap:round;stroke-linejoin:round;stroke-miterlimit:10;" d="
				M230.074,166.337c0,0,2.966-0.456,5.933,3.423c2.966,3.879,2.738,10.04,3.879,12.094c1.141,2.054,2.282,2.054,2.51,3.651
				c0.228,1.597-2.966,2.967-2.966,2.967s-0.685,7.302-2.054,10.04c-1.369,2.738-4.564,2.738-6.161,2.282
				c-1.597-0.456-5.02-1.826-5.02-1.826s-1.141,9.584-0.685,11.638c0.456,2.054,8.899,5.02,10.725,5.933
				c1.826,0.913,3.423,3.651,2.738,7.987c-0.685,4.336,1.141,8.899,1.597,11.638c0.456,2.738,3.195,7.302,0.913,11.638
				c-2.282,4.336-3.879,5.477-3.879,7.074c0,1.597,1.826,7.987,0.685,9.584c-1.141,1.597-26.014,2.054-28.524,2.054
				c-2.51,0-3.879-5.933-4.336-7.302c-0.456-1.369-5.705-22.135-7.53-27.155c-1.826-5.02-2.054-14.604,2.282-16.43
				c4.336-1.826,12.551-3.423,14.376-8.443c1.826-5.02,1.369-11.181,0.913-12.551c-0.456-1.369-5.477-3.195-6.846-16.658
				C207.255,164.511,222.315,159.034,230.074,166.337z"/>
			<path style="fill:#263238;" d="M237.523,192.839c-0.049,0.919-0.503,1.641-1.013,1.614c-0.51-0.027-0.884-0.794-0.835-1.712
				s0.503-1.641,1.013-1.614C237.199,191.154,237.573,191.921,237.523,192.839z"/>
			<path style="fill:none;stroke:#263238;stroke-linecap:round;stroke-linejoin:round;stroke-miterlimit:10;" d="M236.044,179.651
				l1.11,2.961c0,0-0.925,0.925-2.406,0.74"/>
			<path style="fill:none;stroke:#263238;stroke-linecap:round;stroke-linejoin:round;stroke-miterlimit:10;" d="M232.343,178.356
				c0,0,2.036-2.036,4.256-1.85"/>
		</g>
		<g>
			<path style="fill:#C6FF00;stroke:#263238;stroke-linecap:round;stroke-linejoin:round;stroke-miterlimit:10;" d="
				M217.295,187.102c0,0,5.02,0.913,5.477-4.564c0.456-5.477,1.228-9.066,5.792-9.522c4.564-0.456,4.477,0.394,9.497-1.203
				c5.02-1.597,7.53-12.094,2.282-15.061c-5.248-2.966-10.269,2.054-13.691,3.651c-3.423,1.597-7.759-3.879-12.779-0.456
				s-3.195,7.758-4.792,10.497c-1.597,2.738-5.477,7.53-3.195,13.007c2.282,5.477,8.671,13.692,10.953,11.866
				C219.121,193.491,217.295,187.102,217.295,187.102z"/>
			<polygon style="fill:#FFFFFF;stroke:#263238;stroke-linecap:round;stroke-linejoin:round;stroke-miterlimit:10;" points="
				222.816,176.848 217.242,176.151 217.068,178.241 222.467,179.286 			"/>
		</g>
		<path style="fill:#FFFFFF;stroke:#263238;stroke-linecap:round;stroke-linejoin:round;stroke-miterlimit:10;" d="M221.174,189.384
			c0,0-1.369-4.107-4.107-3.879c-2.738,0.228-1.369,6.161,0.913,8.443c2.282,2.282,4.792-0.913,4.792-0.913"/>
		<path style="fill:#C6FF00;stroke:#263238;stroke-linecap:round;stroke-linejoin:round;stroke-miterlimit:10;" d="M207.711,184.135
			c0,0-4.107-2.51-6.389,0c-2.282,2.51-1.826,10.497,1.826,12.779c3.651,2.282,8.443,0,8.215-4.792
			C211.134,187.33,208.852,185.277,207.711,184.135z"/>
		<path style="fill:#C6FF00;stroke:#263238;stroke-linecap:round;stroke-linejoin:round;stroke-miterlimit:10;" d="M238.973,224.526
			c0.685-4.336-0.913-7.074-2.738-7.987c-0.703-0.352-2.389-1.009-4.221-1.8c-0.743,4.363-3.104,11.372-10.612,11.841
			c-7.966,0.498-14.721-7.69-17.815-12.195c-1.253,0.43-2.431,0.831-3.407,1.242c-0.266,0.112-0.513,0.254-0.745,0.422
			c2.638,3.712,6.538,10.218,7.134,16.921c0.484,5.443-2.559,8.321-5.525,9.824c2,7.355,4.103,15.574,4.384,16.418
			c0.456,1.369-0.533,6.321,1.977,6.321s29.742,0.525,30.883-1.072c1.141-1.597-0.685-7.987-0.685-9.584
			c0-1.597,1.597-2.738,3.879-7.074c2.282-4.336-0.456-8.899-0.913-11.638C240.114,233.425,238.289,228.861,238.973,224.526z"/>
		<path style="fill:#FFFFFF;stroke:#263238;stroke-linecap:round;stroke-linejoin:round;stroke-miterlimit:10;" d="M199.953,216.767
			c0,0-4.792-0.228-6.846,5.705c-2.054,5.933-9.356,49.746-8.9,52.256c0.456,2.51,8.671-1.369,9.584-3.423
			c0.913-2.054,10.04-34.685,10.04-34.685"/>
		<path style="fill:#FFFFFF;stroke:#263238;stroke-linecap:round;stroke-linejoin:round;stroke-miterlimit:10;" d="M189.912,264.231
			c0,0,22.135-9.812,25.786-13.463c3.651-3.651,2.738-6.846,3.879-8.443c1.141-1.597,2.054-2.282,2.967-3.879
			c0.913-1.597,1.826-1.369,1.826,0.228c0,1.597-1.369,2.738-1.369,3.423s0,0.685,0,0.685s5.705-2.282,7.074-2.738
			c1.369-0.456,3.423-2.966,3.651-1.369c0.228,1.597-2.51,2.738-2.738,4.792c-0.228,2.054,0,4.564-1.369,6.161
			c-1.369,1.597-6.161,3.879-8.443,4.564c-2.282,0.685-15.973,9.356-22.135,14.148c-6.161,4.792-11.866,8.671-14.376,7.53
			c-2.51-1.141,0.684-8.9,0.684-8.9"/>
		<path style="fill:#FFFFFF;stroke:#263238;stroke-linecap:round;stroke-linejoin:round;stroke-miterlimit:10;" d="M256.215,265.122
			c0,0,1.266-3.164,1.012-4.429c-0.253-1.266-2.477-0.579-2.947,0.976c-0.47,1.555-0.343,2.188,0.163,2.188
			C254.949,263.856,256.215,265.122,256.215,265.122z"/>
		<g>
			<path style="fill:#FFFFFF;stroke:#263238;stroke-linecap:round;stroke-linejoin:round;stroke-miterlimit:10;" d="
				M243.306,264.742c0,0,0.886,1.012,2.404,2.278c1.519,1.266,4.809,1.645,4.809,1.645s-3.417-3.037-4.05-3.67
				C245.837,264.362,243.306,264.742,243.306,264.742z"/>
			<path style="fill:#FFFFFF;stroke:#263238;stroke-linecap:round;stroke-linejoin:round;stroke-miterlimit:10;" d="
				M256.042,264.688c0,0-0.967,3.092-1.979,3.978c-1.012,0.886-4.303-0.126-6.328-1.519c-2.025-1.392-3.037-2.784-1.898-2.784
				C246.976,264.362,256.042,264.688,256.042,264.688z"/>
			<path style="fill:none;stroke:#263238;stroke-linecap:round;stroke-linejoin:round;stroke-miterlimit:10;" d="M247.862,264.869
				c0,0,2.658,2.658,5.568,4.303"/>
			<path style="fill:none;stroke:#263238;stroke-linecap:round;stroke-linejoin:round;stroke-miterlimit:10;" d="M251.737,264.003
				c0,0,1.314,3.27,2.832,4.03"/>
		</g>
		<g>
			<g>
				<path style="fill:#FFFFFF;stroke:#263238;stroke-linecap:round;stroke-linejoin:round;stroke-miterlimit:10;" d="
					M244.991,261.48c-2.791,0-4.538-0.86-5.094-5.309c-0.233-1.864,0.443-2.923,1.051-3.482c1.666-1.531,4.486-0.992,4.803-0.925
					c0.581,0.122,0.952,0.692,0.83,1.273c-0.122,0.58-0.694,0.949-1.271,0.831c-0.525-0.107-2.185-0.263-2.909,0.406
					c-0.127,0.118-0.516,0.477-0.371,1.632c0.442,3.536,1.094,3.604,4.498,3.359c0.603-0.025,1.106,0.403,1.148,0.995
					c0.042,0.592-0.403,1.106-0.995,1.148C246.08,261.449,245.517,261.48,244.991,261.48z"/>
			</g>
			<path style="fill:#FFFFFF;stroke:#263238;stroke-linecap:round;stroke-linejoin:round;stroke-miterlimit:10;" d="
				M252.909,263.935h-4.479c-1.456,0-2.669-1.114-2.794-2.564l-0.984-11.475h12.033l-0.984,11.475
				C255.578,262.821,254.365,263.935,252.909,263.935z"/>
			<polygon style="fill:#FFFFFF;stroke:#263238;stroke-linecap:round;stroke-linejoin:round;stroke-miterlimit:10;" points="
				257.639,264.688 243.199,264.688 241.394,263.183 259.444,263.183 			"/>
		</g>
	</g>
</g>
<g id="Text_Balloon">
	<g>
		<path style="fill:#263238;stroke:#263238;stroke-miterlimit:10;" d="M275.075,115.571h-51.689c-2.75,0-5,2.25-5,5v20.159
			c0,2.75,2.25,5,5,5h27.046l-4.172,9.596l12.099-9.596h16.715c2.75,0,5-2.25,5-5v-20.159
			C280.075,117.821,277.825,115.571,275.075,115.571z"/>
		<g>
			<path style="fill:#FFFFFF;" d="M238.949,130.194c0,1.262-1.023,2.285-2.285,2.285c-1.262,0-2.285-1.023-2.285-2.285
				c0-1.262,1.023-2.285,2.285-2.285C237.926,127.909,238.949,128.932,238.949,130.194z"/>
			<path style="fill:#FFFFFF;" d="M250.83,130.194c0,1.262-1.023,2.285-2.285,2.285c-1.262,0-2.285-1.023-2.285-2.285
				c0-1.262,1.023-2.285,2.285-2.285C249.807,127.909,250.83,128.932,250.83,130.194z"/>
			<path style="fill:#FFFFFF;" d="M262.71,130.194c0,1.262-1.023,2.285-2.285,2.285s-2.285-1.023-2.285-2.285
				c0-1.262,1.023-2.285,2.285-2.285S262.71,128.932,262.71,130.194z"/>
		</g>
	</g>
</g>
</svg>
