<?xml version="1.0" encoding="utf-8"?>
<!-- Generator: Adobe Illustrator 27.5.0, SVG Export Plug-In . SVG Version: 6.00 Build 0)  -->
<svg version="1.1" xmlns="http://www.w3.org/2000/svg" xmlns:xlink="http://www.w3.org/1999/xlink" x="0px" y="0px"
	 viewBox="0 0 500 500" style="enable-background:new 0 0 500 500;" xml:space="preserve">
<g id="Background_Simple">
	<g>
		<path style="fill:#C6FF00;" d="M35.515,210.879c0,0-8.298,80.026,50.792,146.334c59.089,66.308,150.482,88.549,224.2,108.517
			c73.718,19.967,136.627-10.713,153.943-72.701c17.317-61.988-36.984-92.102-57.924-170.822
			c-20.94-78.72-14.939-102.011-74.116-159.719C273.232,4.78,167.386,11.679,103.414,77.357S35.515,210.879,35.515,210.879z"/>
		<path style="opacity:0.7;fill:#FFFFFF;" d="M35.515,210.879c0,0-8.298,80.026,50.792,146.334
			c59.089,66.308,150.482,88.549,224.2,108.517c73.718,19.967,136.627-10.713,153.943-72.701
			c17.317-61.988-36.984-92.102-57.924-170.822c-20.94-78.72-14.939-102.011-74.116-159.719
			C273.232,4.78,167.386,11.679,103.414,77.357S35.515,210.879,35.515,210.879z"/>
	</g>
</g>
<g id="Device">
	<g>
		<g>
			<defs>
				<path id="XMLID_4_" d="M329.7,450.072H169.657c-8.02,0-14.522-6.502-14.522-14.522V95.593c0-8.02,6.502-14.522,14.522-14.522
					H329.7c8.02,0,14.522,6.502,14.522,14.522V435.55C344.222,443.57,337.72,450.072,329.7,450.072z"/>
			</defs>
			<use xlink:href="#XMLID_4_"  style="overflow:visible;fill:#263238;"/>
			<clipPath id="XMLID_00000135656555432814106170000018333200366840487848_">
				<use xlink:href="#XMLID_4_"  style="overflow:visible;"/>
			</clipPath>
			<path style="opacity:0.2;clip-path:url(#XMLID_00000135656555432814106170000018333200366840487848_);fill:#FFFFFF;" d="
				M171.434,81.072c-9.001,0-16.298,7.297-16.298,16.299v336.403c0,5.022,2.275,9.51,5.847,12.5L271.296,81.072H171.434z"/>
			
				<path style="clip-path:url(#XMLID_00000135656555432814106170000018333200366840487848_);fill:none;stroke:#FFFFFF;stroke-linecap:round;stroke-linejoin:round;stroke-miterlimit:10;" d="
				M256.104,439.4c0-3.548-2.877-6.425-6.425-6.425c-3.548,0-6.425,2.876-6.425,6.425s2.877,6.425,6.425,6.425
				C253.227,445.825,256.104,442.949,256.104,439.4z"/>
			
				<use xlink:href="#XMLID_4_"  style="overflow:visible;fill:none;stroke:#263238;stroke-linecap:round;stroke-linejoin:round;stroke-miterlimit:10;"/>
		</g>
		
			<rect id="XMLID_1_" x="163.544" y="106.131" style="fill:#FFFFFF;stroke:#263238;stroke-linecap:round;stroke-linejoin:round;stroke-miterlimit:10;" width="172.268" height="322.039"/>
		<g>
			<g>
				
					<rect x="315.668" y="109.471" style="fill:none;stroke:#263238;stroke-width:0.8211;stroke-linecap:round;stroke-linejoin:round;stroke-miterlimit:10;" width="14.284" height="7.833"/>
				
					<rect x="315.668" y="109.471" style="fill:#263238;stroke:#263238;stroke-width:0.7251;stroke-linecap:round;stroke-linejoin:round;stroke-miterlimit:10;" width="11.139" height="7.833"/>
				
					<rect x="329.922" y="111.663" style="fill:#263238;stroke:#263238;stroke-width:0.7251;stroke-linecap:round;stroke-linejoin:round;stroke-miterlimit:10;" width="2.012" height="3.45"/>
			</g>
			<g>
				
					<rect x="167.423" y="111.901" style="fill:#263238;stroke:#263238;stroke-width:0.8831;stroke-linecap:round;stroke-linejoin:round;stroke-miterlimit:10;" width="2.619" height="4.489"/>
				
					<rect x="171.538" y="110.325" style="fill:#263238;stroke:#263238;stroke-width:0.8831;stroke-linecap:round;stroke-linejoin:round;stroke-miterlimit:10;" width="2.619" height="6.066"/>
				
					<rect x="175.653" y="108.462" style="fill:#263238;stroke:#263238;stroke-width:0.8831;stroke-linecap:round;stroke-linejoin:round;stroke-miterlimit:10;" width="2.619" height="7.928"/>
			</g>
		</g>
		<g>
			<rect x="166.322" y="121.66" style="fill:#C6FF00;" width="165.424" height="12.435"/>
		</g>
	</g>
</g>
<g id="Text_Balloons">
	<g>
		<path style="fill:#FFFFFF;stroke:#263238;stroke-miterlimit:10;" d="M321.838,298.707h-50.889c-3.468,0-6.279,2.811-6.279,6.278
			v6.246l-12.557,5.651l12.557,3.369v3.901c0,3.467,2.811,6.279,6.279,6.279h50.889c3.467,0,6.279-2.811,6.279-6.279v-19.166
			C328.116,301.517,325.305,298.707,321.838,298.707z"/>
		<g>
			<g>
				<path style="fill:#263238;" d="M287.521,315.076c0,1.46-1.183,2.643-2.643,2.643c-1.46,0-2.643-1.183-2.643-2.643
					c0-1.46,1.183-2.643,2.643-2.643C286.337,312.433,287.521,313.616,287.521,315.076z"/>
				<path style="fill:#263238;" d="M299.084,315.076c0,1.46-1.183,2.643-2.643,2.643c-1.46,0-2.643-1.183-2.643-2.643
					c0-1.46,1.183-2.643,2.643-2.643C297.9,312.433,299.084,313.616,299.084,315.076z"/>
				<path style="fill:#263238;" d="M310.647,315.076c0,1.46-1.183,2.643-2.643,2.643c-1.46,0-2.643-1.183-2.643-2.643
					c0-1.46,1.183-2.643,2.643-2.643C309.464,312.433,310.647,313.616,310.647,315.076z"/>
			</g>
		</g>
	</g>
	<g>
		<path style="fill:#FFFFFF;stroke:#263238;stroke-miterlimit:10;" d="M321.838,148.706h-50.889c-3.468,0-6.279,2.811-6.279,6.279
			v6.245l-12.557,5.651l12.557,3.369v3.901c0,3.467,2.811,6.279,6.279,6.279h50.889c3.467,0,6.279-2.811,6.279-6.279v-19.166
			C328.116,151.518,325.305,148.706,321.838,148.706z"/>
		<g>
			<g>
				<path style="fill:#263238;" d="M287.521,165.076c0,1.46-1.183,2.643-2.643,2.643c-1.46,0-2.643-1.183-2.643-2.643
					c0-1.46,1.183-2.643,2.643-2.643C286.337,162.433,287.521,163.616,287.521,165.076z"/>
				<path style="fill:#263238;" d="M299.084,165.076c0,1.46-1.183,2.643-2.643,2.643c-1.46,0-2.643-1.183-2.643-2.643
					c0-1.46,1.183-2.643,2.643-2.643C297.9,162.433,299.084,163.616,299.084,165.076z"/>
				<path style="fill:#263238;" d="M310.647,165.076c0,1.46-1.183,2.643-2.643,2.643c-1.46,0-2.643-1.183-2.643-2.643
					c0-1.46,1.183-2.643,2.643-2.643C309.464,162.433,310.647,163.616,310.647,165.076z"/>
			</g>
		</g>
	</g>
	<g>
		<path style="fill:#FFFFFF;stroke:#263238;stroke-miterlimit:10;" d="M178.392,380.04h50.889c3.467,0,6.278,2.811,6.278,6.279
			v6.246l12.557,5.651l-12.557,3.369v3.901c0,3.468-2.811,6.278-6.278,6.278h-50.889c-3.468,0-6.279-2.811-6.279-6.278v-19.166
			C172.113,382.851,174.924,380.04,178.392,380.04z"/>
		<g>
			<g>
				<path style="fill:#263238;" d="M212.709,396.409c0,1.46,1.183,2.643,2.643,2.643s2.643-1.183,2.643-2.643
					c0-1.46-1.183-2.643-2.643-2.643S212.709,394.949,212.709,396.409z"/>
				<path style="fill:#263238;" d="M201.146,396.409c0,1.46,1.183,2.643,2.643,2.643c1.46,0,2.643-1.183,2.643-2.643
					c0-1.46-1.183-2.643-2.643-2.643C202.329,393.766,201.146,394.949,201.146,396.409z"/>
				<path style="fill:#263238;" d="M189.583,396.409c0,1.46,1.183,2.643,2.643,2.643s2.643-1.183,2.643-2.643
					c0-1.46-1.183-2.643-2.643-2.643S189.583,394.949,189.583,396.409z"/>
			</g>
		</g>
	</g>
	<g>
		<path style="fill:#FFFFFF;stroke:#263238;stroke-miterlimit:10;" d="M178.392,227.988h50.889c3.467,0,6.278,2.811,6.278,6.279
			v6.245l12.557,5.651l-12.557,3.369v3.901c0,3.467-2.811,6.278-6.278,6.278h-50.889c-3.468,0-6.279-2.811-6.279-6.278v-19.166
			C172.113,230.799,174.924,227.988,178.392,227.988z"/>
		<g>
			<g>
				<path style="fill:#263238;" d="M212.709,244.357c0,1.46,1.183,2.643,2.643,2.643s2.643-1.183,2.643-2.643
					c0-1.46-1.183-2.643-2.643-2.643S212.709,242.897,212.709,244.357z"/>
				<path style="fill:#263238;" d="M201.146,244.357c0,1.46,1.183,2.643,2.643,2.643c1.46,0,2.643-1.183,2.643-2.643
					c0-1.46-1.183-2.643-2.643-2.643C202.329,241.714,201.146,242.897,201.146,244.357z"/>
				<path style="fill:#263238;" d="M189.583,244.357c0,1.46,1.183,2.643,2.643,2.643s2.643-1.183,2.643-2.643
					c0-1.46-1.183-2.643-2.643-2.643S189.583,242.897,189.583,244.357z"/>
			</g>
		</g>
	</g>
</g>
<g id="Character_1">
	<g>
		<g>
			<g id="XMLID_16_">
				<path style="fill:#616161;stroke:#263238;stroke-linecap:round;stroke-linejoin:round;stroke-miterlimit:10;" d="
					M252.461,223.891c-1.178-5.209-5.739-24.793-8.588-28.633c-3.292-4.438-22.331-14.744-25.051-16.605
					c-2.72-1.861-6.871-3.293-8.159-3.293c0,0-10.45,3.579-20.757,6.299c-10.307,2.72-16.033,4.581-17.178,8.016
					c-1.008,3.024-5.564,28.222-6.641,34.216H252.461z"/>
				<path style="fill:none;stroke:#263238;stroke-linecap:round;stroke-linejoin:round;stroke-miterlimit:10;" d="M190.027,222.103
					c-0.422-7.469-0.844-14.938-1.266-22.407"/>
				
					<path id="XMLID_17_" style="fill:#FFFFFF;stroke:#263238;stroke-linecap:round;stroke-linejoin:round;stroke-miterlimit:10;" d="
					M218.393,198.264c4.867-0.716,7.587-9.591,8.303-13.313c0.103-0.537,0.2-1.015,0.291-1.45c-3.88-2.294-7.152-4.156-8.164-4.849
					c-2.72-1.861-6.871-3.293-8.16-3.293c0,0-3.814,1.306-9.103,2.939c0.714,1.621,2.522,5.623,5.238,10.946
					C210.376,196.26,213.526,198.98,218.393,198.264z"/>
			</g>
			<path id="XMLID_15_" style="fill:#B2B2B2;stroke:#263238;stroke-linecap:round;stroke-linejoin:round;stroke-miterlimit:10;" d="
				M207.513,162.334c0,0-1.431,14.744-1.575,15.603c-0.143,0.859,1.861,6.585,5.296,11.881c3.436,5.297,8.016,4.867,10.307,0.286
				c2.29-4.581,4.151-11.881,4.151-11.881s-7.014-1.145-10.45-8.016C211.808,163.336,208.945,160.33,207.513,162.334z"/>
			<g>
				<g>
					
						<path id="XMLID_14_" style="fill:#B2B2B2;stroke:#263238;stroke-linecap:round;stroke-linejoin:round;stroke-miterlimit:10;" d="
						M217.391,127.263c0,0-9.161,2.72-12.454,9.877c-2.675,5.816-1.145,14.888,0,17.894c1.145,3.006,1.575,8.875,3.722,14.172
						c2.147,5.296,7.873,12.024,12.74,13.026c4.867,1.002,14.458-6.728,17.035-10.307c2.577-3.579,1.718-9.734,2.004-10.736
						c0.286-1.002,4.008-8.16,3.579-17.035C243.587,135.279,231.276,124.829,217.391,127.263z"/>
					<path id="XMLID_13_" style="fill:none;stroke:#263238;stroke-linecap:round;stroke-linejoin:round;stroke-miterlimit:10;" d="
						M234.998,160.187c0,0,1.288,8.303-0.716,9.161c-2.004,0.859-5.869-0.429-6.442-1.575"/>
					
						<path id="XMLID_12_" style="fill:#263238;stroke:#263238;stroke-linecap:round;stroke-linejoin:round;stroke-miterlimit:10;" d="
						M226.695,172.211c0,0-3.579-1.575-5.583-4.581c0,0-3.149,4.724,0.286,6.012C224.834,174.931,226.695,172.211,226.695,172.211z"
						/>
					<path id="XMLID_11_" style="fill:#263238;" d="M228.367,159.927c-0.345,1.135-1.085,1.914-1.652,1.742
						c-0.567-0.173-0.747-1.232-0.402-2.367c0.345-1.134,1.085-1.914,1.652-1.742C228.532,157.733,228.712,158.792,228.367,159.927z
						"/>
					<path id="XMLID_10_" style="fill:#263238;" d="M238.387,161.501c-0.345,1.135-1.085,1.914-1.652,1.742
						c-0.567-0.173-0.747-1.232-0.402-2.367c0.345-1.134,1.085-1.914,1.652-1.742C238.552,159.307,238.732,160.367,238.387,161.501z
						"/>
					<g id="XMLID_9_">
						<path style="fill:#263238;" d="M231.283,154.833c-0.23,0-0.46-0.085-0.64-0.257c-2.671-2.556-5.667-0.194-5.794-0.092
							c-0.397,0.321-0.98,0.259-1.301-0.138c-0.321-0.398-0.259-0.98,0.138-1.301c1.507-1.217,5.167-2.74,8.236,0.194
							c0.369,0.353,0.382,0.939,0.029,1.308C231.77,154.738,231.526,154.833,231.283,154.833z"/>
					</g>
					<g id="XMLID_8_">
						<path style="fill:#263238;" d="M241.87,157.962c-0.305,0-0.604-0.15-0.78-0.426c-0.561-0.877-1.183-1.367-1.85-1.457
							c-0.989-0.135-1.897,0.636-1.906,0.644c-0.38,0.342-0.965,0.311-1.306-0.069c-0.342-0.38-0.311-0.965,0.069-1.306
							c0.062-0.056,1.531-1.355,3.391-1.103c1.229,0.166,2.293,0.938,3.16,2.293c0.276,0.43,0.15,1.002-0.281,1.278
							C242.214,157.915,242.041,157.962,241.87,157.962z"/>
					</g>
				</g>
				<path id="XMLID_7_" style="fill:#263238;stroke:#263238;stroke-linecap:round;stroke-linejoin:round;stroke-miterlimit:10;" d="
					M205.183,155.764c0.055,0.178,0.109,0.358,0.161,0.549c0.01,0.037,0.02,0.077,0.029,0.114c0.054,0.202,0.107,0.407,0.159,0.622
					c0.005,0.02,0.01,0.041,0.014,0.061c0.057,0.237,0.113,0.48,0.168,0.731l4.518-0.948c0,0,4.151,0.859,4.724-0.573
					c0.573-1.432-2.147-3.579-0.143-5.726c2.004-2.147,7.587-0.716,8.159-3.436c0.573-2.72,2.004-12.454,13.599-9.448
					c2.165,0.561,4.863,2.034,6.755,3.095c-2.819-7.922-13.773-15.676-25.936-13.545c0,0-9.161,2.72-12.454,9.877
					c-2.675,5.816-1.145,14.888,0,17.894c0.073,0.191,0.142,0.394,0.21,0.607C205.159,155.68,205.171,155.724,205.183,155.764z"/>
				<path id="XMLID_5_" style="fill:#B2B2B2;stroke:#263238;stroke-linecap:round;stroke-linejoin:round;stroke-miterlimit:10;" d="
					M212.237,159.328c0,0-1.288-5.583-4.724-6.155c-3.436-0.573-4.724,3.579-4.008,7.301c0.716,3.722,4.438,7.157,7.73,6.155"/>
			</g>
			<g id="XMLID_2_">
				<path style="fill:#B2B2B2;stroke:#263238;stroke-linecap:round;stroke-linejoin:round;stroke-miterlimit:10;" d="
					M223.582,223.891c2.61-2.839,8.677-9.432,9.125-9.88c0.573-0.573,1.432-0.573,4.724-1.432s8.732-2.72,9.591-3.436
					c0.859-0.716,2.434-1.575,3.436-3.006s1.431-2.863,1.861-3.579c0.429-0.716,3.865-2.29,4.724-3.006
					c0.859-0.716,1.718-2.147,1.431-2.863c-0.286-0.716-5.297,0.716-9.877,1.718c-4.581,1.002-7.444,1.145-7.444,1.145
					s2.577-3.722,4.151-5.44c1.575-1.718,1.002-5.44-0.143-4.008s-8.446,8.875-10.02,9.448s-5.153,5.869-7.587,8.303
					c-2.022,2.022-18.261,12.534-23.702,16.036H223.582z"/>
				
					<line id="XMLID_3_" style="fill:none;stroke:#263238;stroke-linecap:round;stroke-linejoin:round;stroke-miterlimit:10;" x1="252.319" y1="202.559" x2="247.452" y2="204.277"/>
			</g>
		</g>
		
			<line style="fill:none;stroke:#263238;stroke-linecap:round;stroke-linejoin:round;stroke-miterlimit:10;" x1="332.938" y1="223.891" x2="168.913" y2="223.891"/>
	</g>
</g>
<g id="Character_2">
	<g>
		<g>
			<path style="fill:#FFFFFF;stroke:#263238;stroke-linecap:round;stroke-linejoin:round;stroke-miterlimit:10;" d="
				M332.554,296.766c-0.505-3.808-2.634-18.74-5.773-25.6c-3.614-7.898-10.173-12.315-15.929-14.055
				c-5.756-1.74-13.252-3.213-17-2.677c0,0-12.449,4.284-17.803,5.488c-5.354,1.205-10.899,4.951-13.175,8.164
				c-2.026,2.86-12.484,24.054-14.759,28.68H332.554z"/>
			<path style="fill:#C6FF00;stroke:#263238;stroke-linecap:round;stroke-linejoin:round;stroke-miterlimit:10;" d="
				M332.554,296.766c-0.505-3.805-2.633-18.739-5.773-25.6c-3.614-7.898-10.173-12.315-15.929-14.055
				c-5.756-1.74-13.252-3.212-17-2.677c0,0-8.534,2.936-14.51,4.63c-1.868,2.912-6.077,9.4-9.986,14.913
				c-4.99,7.036-7.032,17.118-4.282,22.789H332.554z"/>
			<path id="XMLID_35_" style="fill:#FFFFFF;stroke:#263238;stroke-linecap:round;stroke-linejoin:round;stroke-miterlimit:10;" d="
				M285.821,246.671c0,0,1.874,6.157,1.339,14.323c-0.535,8.165-4.819,13.386-3.213,17.535s8.031,5.756,13.654,1.339
				c5.622-4.417,6.693-15.26,6.827-20.079c0.134-4.819,2.409-19.811,2.409-19.811s-6.024,7.094-12.984,7.362
				C286.892,247.608,285.821,246.671,285.821,246.671z"/>
			<g>
				<defs>
					<path id="XMLID_34_" d="M287.293,208.387c0,0-8.968,1.606-13.118,9.504c-3.979,7.573-2.091,20.297,1.852,27.84
						c4.974,9.515,4.706,12.775,4.758,21.193c0.007,1.139-0.214,2.311-1.065,3.135c-2.059,1.992-2.332-1.034-2.867,0.706
						c-0.535,1.74,5.014,5.458,10.709,0.484c3.702-3.233,4.551-12.264,2.811-17.484c-1.74-5.22-10.441-16.063-8.567-24.496
						c1.874-8.433,8.433-15.394,8.968-18.606C291.309,207.45,287.293,208.387,287.293,208.387z"/>
				</defs>
				<use xlink:href="#XMLID_34_"  style="overflow:visible;fill:#263238;"/>
				<clipPath id="XMLID_00000100353485710504088640000002401049506531078028_">
					<use xlink:href="#XMLID_34_"  style="overflow:visible;"/>
				</clipPath>
				
					<path style="clip-path:url(#XMLID_00000100353485710504088640000002401049506531078028_);fill:none;stroke:#636363;stroke-linecap:round;stroke-linejoin:round;stroke-miterlimit:10;" d="
					M287.666,213.294c0,0-15.555,9.329-13.124,23.767c2.43,14.438,17.985,18.658,16.527,33.54"/>
				
					<use xlink:href="#XMLID_34_"  style="overflow:visible;fill:none;stroke:#263238;stroke-linecap:round;stroke-linejoin:round;stroke-miterlimit:10;"/>
			</g>
			<path style="fill:#FFFFFF;stroke:#263238;stroke-linecap:round;stroke-linejoin:round;stroke-miterlimit:10;" d="
				M312.207,296.766h20.348c-0.005-0.034-0.009-0.067-0.014-0.102c-0.003-0.026-0.007-0.054-0.011-0.081
				c-0.007-0.051-0.014-0.102-0.021-0.156c-0.001-0.01-0.003-0.02-0.004-0.03c-0.009-0.07-0.02-0.143-0.03-0.219
				c-0.002-0.014-0.004-0.028-0.006-0.042c-0.009-0.066-0.018-0.134-0.028-0.203c-0.004-0.031-0.009-0.063-0.013-0.095
				c-0.009-0.067-0.018-0.134-0.028-0.203c-0.003-0.018-0.005-0.037-0.008-0.056c-0.012-0.084-0.024-0.17-0.036-0.258
				c-0.002-0.012-0.004-0.025-0.005-0.037c-0.013-0.089-0.025-0.179-0.039-0.272c-0.003-0.024-0.007-0.048-0.01-0.072
				c-0.011-0.08-0.023-0.161-0.035-0.244c-0.005-0.035-0.01-0.07-0.015-0.106c-0.013-0.088-0.026-0.177-0.039-0.267
				c-0.004-0.025-0.007-0.049-0.011-0.074c-0.014-0.096-0.029-0.195-0.043-0.294c-0.004-0.026-0.008-0.052-0.012-0.079
				c-0.014-0.092-0.027-0.185-0.042-0.279c-0.006-0.041-0.012-0.082-0.019-0.124c-0.014-0.092-0.028-0.186-0.042-0.281
				c-0.005-0.035-0.011-0.07-0.016-0.106c-0.018-0.116-0.036-0.234-0.054-0.353c-0.003-0.016-0.005-0.031-0.007-0.047
				c-0.018-0.117-0.036-0.236-0.055-0.356c-0.004-0.028-0.009-0.055-0.013-0.082c-0.02-0.128-0.04-0.258-0.061-0.389
				c-0.002-0.014-0.005-0.029-0.007-0.043c-0.023-0.148-0.047-0.297-0.071-0.448c0,0,0-0.001,0-0.001
				c-0.074-0.46-0.151-0.935-0.233-1.425c-0.003-0.015-0.005-0.03-0.008-0.046c-0.025-0.148-0.05-0.297-0.076-0.448
				c-0.003-0.015-0.005-0.031-0.008-0.046c-0.025-0.15-0.051-0.3-0.077-0.452c-0.004-0.024-0.008-0.048-0.013-0.073
				c-0.025-0.141-0.049-0.284-0.074-0.427c-0.007-0.037-0.013-0.075-0.02-0.112c-0.022-0.128-0.045-0.257-0.068-0.386
				c-0.01-0.055-0.02-0.111-0.03-0.166c-0.02-0.114-0.041-0.229-0.062-0.344c-0.011-0.06-0.022-0.119-0.033-0.179
				c-0.021-0.114-0.042-0.229-0.063-0.344c-0.011-0.058-0.022-0.117-0.032-0.175c-0.022-0.119-0.044-0.238-0.066-0.358
				c-0.01-0.056-0.021-0.112-0.032-0.168c-0.022-0.12-0.045-0.239-0.068-0.359c-0.011-0.059-0.023-0.119-0.034-0.178
				c-0.023-0.118-0.045-0.236-0.068-0.355c-0.012-0.06-0.023-0.12-0.035-0.18c-0.023-0.12-0.047-0.241-0.071-0.361
				c-0.012-0.06-0.024-0.121-0.036-0.181c-0.023-0.118-0.047-0.235-0.071-0.353c-0.013-0.063-0.025-0.125-0.038-0.188
				c-0.024-0.119-0.048-0.238-0.073-0.357c-0.013-0.063-0.026-0.125-0.038-0.188c-0.025-0.12-0.05-0.239-0.075-0.359
				c-0.013-0.061-0.025-0.121-0.038-0.182c-0.026-0.122-0.052-0.244-0.078-0.366c-0.013-0.06-0.026-0.12-0.038-0.18
				c-0.028-0.13-0.056-0.26-0.085-0.39c-0.011-0.049-0.021-0.098-0.032-0.147c-0.033-0.149-0.066-0.297-0.099-0.446
				c-0.007-0.031-0.014-0.063-0.021-0.095c-0.039-0.176-0.079-0.351-0.119-0.526c-0.001-0.005-0.002-0.01-0.003-0.015
				c-0.083-0.364-0.168-0.726-0.255-1.086c-0.007-0.027-0.013-0.053-0.02-0.08c-0.036-0.15-0.072-0.299-0.109-0.448
				c-0.013-0.052-0.026-0.103-0.039-0.155c-0.03-0.123-0.061-0.245-0.091-0.367c-0.016-0.063-0.032-0.125-0.048-0.188
				c-0.029-0.112-0.057-0.224-0.086-0.336c-0.017-0.065-0.034-0.129-0.051-0.193c-0.028-0.107-0.056-0.213-0.084-0.319
				c-0.018-0.069-0.037-0.138-0.056-0.207c-0.027-0.101-0.054-0.202-0.082-0.302c-0.019-0.071-0.039-0.141-0.059-0.212
				c-0.027-0.096-0.053-0.193-0.08-0.289c-0.02-0.072-0.041-0.144-0.061-0.216c-0.027-0.095-0.054-0.189-0.081-0.282
				c-0.021-0.071-0.041-0.141-0.062-0.212c-0.027-0.091-0.054-0.182-0.081-0.273c-0.022-0.072-0.044-0.145-0.065-0.217
				c-0.027-0.088-0.053-0.175-0.08-0.262c-0.022-0.072-0.044-0.143-0.066-0.214c-0.027-0.087-0.055-0.173-0.082-0.259
				c-0.022-0.07-0.044-0.139-0.067-0.208c-0.028-0.085-0.055-0.169-0.083-0.253c-0.023-0.068-0.045-0.137-0.068-0.205
				c-0.028-0.083-0.056-0.165-0.084-0.247c-0.023-0.066-0.046-0.133-0.069-0.199c-0.028-0.081-0.057-0.161-0.085-0.241
				c-0.023-0.065-0.046-0.13-0.07-0.194c-0.029-0.079-0.058-0.157-0.087-0.236c-0.023-0.063-0.046-0.125-0.07-0.187
				c-0.031-0.081-0.061-0.16-0.092-0.239c-0.022-0.057-0.044-0.114-0.066-0.171c-0.032-0.081-0.065-0.161-0.097-0.24
				c-0.021-0.052-0.043-0.106-0.064-0.158c-0.035-0.084-0.07-0.167-0.106-0.249c-0.019-0.045-0.038-0.09-0.057-0.134
				c-0.054-0.125-0.109-0.248-0.164-0.368c-3.381-7.389-9.34-11.73-14.808-13.684c-0.891,3.105-3.133,11.809-2.594,19.039
				C309.887,283.316,311.469,292.643,312.207,296.766z"/>
			<g>
				
					<path id="XMLID_33_" style="fill:#FFFFFF;stroke:#263238;stroke-linecap:round;stroke-linejoin:round;stroke-miterlimit:10;" d="
					M288.498,208.923c0,0-5.087,3.882-6.693,8.165c-1.606,4.283-2.945,15.126-2.677,19.409c0.268,4.283,5.756,11.779,8.031,13.653
					c2.276,1.874,12.047-0.268,16.598-4.551c3.182-2.995,5.89-13.252,3.748-23.291C305.364,212.269,295.057,206.513,288.498,208.923
					z"/>
				<path id="XMLID_32_" style="fill:none;stroke:#263238;stroke-linecap:round;stroke-linejoin:round;stroke-miterlimit:10;" d="
					M292.915,228.466c0,0,2.945-3.079,7.898-0.535"/>
				<path id="XMLID_31_" style="fill:none;stroke:#263238;stroke-linecap:round;stroke-linejoin:round;stroke-miterlimit:10;" d="
					M285.687,226.726c0,0-0.402-2.811-3.882-4.016"/>
				<path id="XMLID_30_" style="fill:none;stroke:#263238;stroke-linecap:round;stroke-linejoin:round;stroke-miterlimit:10;" d="
					M288.096,225.387c0,0-0.268,2.543-1.205,3.48c-0.937,0.937-2.945,1.874-2.142,3.748c0.803,1.874,3.213,2.276,4.283,1.205"/>
				<path id="XMLID_29_" style="fill:none;stroke:#263238;stroke-linecap:round;stroke-linejoin:round;stroke-miterlimit:10;" d="
					M282.073,220.167c0,0,2.276-2.811,6.024,0"/>
				<path id="XMLID_28_" style="fill:none;stroke:#263238;stroke-linecap:round;stroke-linejoin:round;stroke-miterlimit:10;" d="
					M292.246,221.505c0,0,4.417-2.677,7.898,2.276"/>
				<path id="XMLID_27_" style="fill:none;stroke:#263238;stroke-linecap:round;stroke-linejoin:round;stroke-miterlimit:10;" d="
					M284.482,236.899c0,0,1.874,2.543,6.961,1.874c5.087-0.669,6.291-2.811,6.291-2.811"/>
				<path id="XMLID_26_" style="fill:#263238;" d="M296.663,228.399c0,0.702-0.569,1.272-1.272,1.272
					c-0.702,0-1.272-0.569-1.272-1.272c0-0.702,0.569-1.272,1.272-1.272C296.094,227.127,296.663,227.697,296.663,228.399z"/>
				<path id="XMLID_25_" style="fill:#263238;" d="M284.884,225.454c0,0.702-0.569,1.272-1.272,1.272
					c-0.702,0-1.272-0.569-1.272-1.272s0.569-1.272,1.272-1.272C284.315,224.182,284.884,224.752,284.884,225.454z"/>
				
					<path id="XMLID_24_" style="fill:#263238;stroke:#263238;stroke-linecap:round;stroke-linejoin:round;stroke-miterlimit:10;" d="
					M287.427,238.639c0,0,2.142,4.417,5.89,4.016c3.748-0.402,3.48-5.622,3.48-5.622S292.648,239.71,287.427,238.639z"/>
			</g>
			<g>
				<defs>
					<path id="XMLID_23_" d="M299.595,197.419c-0.099,0.01-0.197,0.021-0.296,0.033c-4.797,0.549-11.1,1.564-14.951,4.645
						c-4.685,3.748-3.079,4.685,1.205,6.827c4.283,2.142,17,9.236,18.205,19.409c1.205,10.173-2.945,26.102-4.953,33.331
						c-2.008,7.228,0.669,12.181,4.552,15.662c1.849,1.658,4.104,2.421,6.587,2.172c2.173-0.217,4.913-0.793,6.643-2.214
						c0.192-0.158,2.387-2.465,2.029-2.77c-1.915-1.637-4.229,0.705-5.394-1.535c-2.393-4.6,1.318-10.112,3.823-13.889
						c2.052-3.093,5.467-4.963,7.545-8.028c2.126-3.136,3.142-6.991,3.579-10.714c0.953-8.138-0.576-16.766-3.438-24.398
						c-3.711-9.898-11.387-18.7-22.7-18.666C301.218,197.286,300.404,197.334,299.595,197.419z"/>
				</defs>
				<use xlink:href="#XMLID_23_"  style="overflow:visible;fill:#263238;"/>
				<clipPath id="XMLID_00000183965618402852992480000015549875469272594352_">
					<use xlink:href="#XMLID_23_"  style="overflow:visible;"/>
				</clipPath>
				<g style="clip-path:url(#XMLID_00000183965618402852992480000015549875469272594352_);">
					<path style="fill:none;stroke:#636363;stroke-linecap:round;stroke-linejoin:round;stroke-miterlimit:10;" d="M278.406,201.616
						c0,0,14.056,1.514,22.922,13.624c8.866,12.11,11.461,20.328,11.245,31.573c-0.216,11.245,8.866,16.435,15.57,13.191"/>
					<path style="fill:none;stroke:#636363;stroke-linecap:round;stroke-linejoin:round;stroke-miterlimit:10;" d="M290.732,198.156
						c0,0,18.165,3.46,24.004,21.625c5.839,18.165,3.46,29.194,11.245,30.708"/>
					<path style="fill:none;stroke:#636363;stroke-linecap:round;stroke-linejoin:round;stroke-miterlimit:10;" d="M299.815,232.108
						c0,0,6.704,16.219,4.974,31.573s4.974,18.165,15.786,15.354"/>
				</g>
				
					<use xlink:href="#XMLID_23_"  style="overflow:visible;fill:none;stroke:#263238;stroke-linecap:round;stroke-linejoin:round;stroke-miterlimit:10;"/>
			</g>
			<g id="XMLID_18_">
				<path style="fill:#FFFFFF;stroke:#263238;stroke-linecap:round;stroke-linejoin:round;stroke-miterlimit:10;" d="
					M234.419,272.237c1.74,1.606,3.748,2.142,3.748,2.142s2.142,6.559,2.008,11.779c-0.098,3.816,0.447,8.407,0.747,10.608h16.399
					c-1.452-2.548-5.57-10.01-7.643-16.23c-2.543-7.63-1.472-11.913-3.213-16.866c-1.74-4.953-2.543-7.362-5.488-11.244
					c-2.945-3.882-5.622-2.677-5.622-1.339c0,1.339,1.606,1.874,2.811,3.748c1.205,1.874,2.008,4.417,2.008,4.417
					s-5.622,2.543-7.228,5.354C231.341,267.418,232.679,270.631,234.419,272.237z"/>
				
					<path id="XMLID_22_" style="fill:#FFFFFF;stroke:#263238;stroke-linecap:round;stroke-linejoin:round;stroke-miterlimit:10;" d="
					M230.538,262.466c0,0-2.142,2.008-2.142,4.016c0,2.008,1.606,4.819,2.41,4.819c0.803,0,1.205-1.472,0.803-2.945
					C231.207,266.883,230.538,262.466,230.538,262.466z"/>
				
					<path id="XMLID_21_" style="fill:#FFFFFF;stroke:#263238;stroke-linecap:round;stroke-linejoin:round;stroke-miterlimit:10;" d="
					M233.081,259.655c0,0-2.543,1.606-3.213,3.614c-0.669,2.008,0.268,3.882,1.071,5.087c0.803,1.205,3.213,1.472,3.882,0.803
					c0.669-0.669,0.134-2.142,0-2.945c-0.134-0.803-1.472-3.48-1.339-4.685c0.134-1.205,0.134-1.874,0.134-1.874H233.081z"/>
				
					<path id="XMLID_20_" style="fill:#FFFFFF;stroke:#263238;stroke-linecap:round;stroke-linejoin:round;stroke-miterlimit:10;" d="
					M240.175,259.253c0,0-3.48-2.142-6.157-0.669c-2.677,1.473-2.543,4.417-1.606,6.559c0.937,2.142,3.346,3.346,4.417,2.409
					c1.071-0.937-0.134-2.409,0.134-4.417C237.23,261.127,240.175,259.253,240.175,259.253z"/>
				
					<path id="XMLID_19_" style="fill:#FFFFFF;stroke:#263238;stroke-linecap:round;stroke-linejoin:round;stroke-miterlimit:10;" d="
					M243.656,263.001c0,0-2.811-3.748-5.354-3.48c-2.543,0.268-6.693,4.953-5.89,6.158c0.803,1.205,5.622-0.669,5.622-0.669
					s-1.339,4.417,2.008,5.354"/>
			</g>
		</g>
		
			<line style="fill:none;stroke:#263238;stroke-linecap:round;stroke-linejoin:round;stroke-miterlimit:10;" x1="332.938" y1="296.766" x2="168.913" y2="296.766"/>
	</g>
</g>
<g id="Character_3">
	<g>
		
			<line style="fill:none;stroke:#263238;stroke-linecap:round;stroke-linejoin:round;stroke-miterlimit:10;" x1="332.938" y1="375.86" x2="168.913" y2="375.86"/>
		<g>
			<path id="XMLID_44_" style="fill:#263238;stroke:#263238;stroke-linecap:round;stroke-linejoin:round;stroke-miterlimit:10;" d="
				M257.132,375.537c0,0,1.455-12.936-3.558-16.332s-26.843-19.081-35.252-21.022c-8.409-1.94-13.583-3.719-16.979-1.779
				c-3.396,1.94-17.464,14.553-23.286,18.596c-5.821,4.043-8.732,8.247-9.541,11.32c-0.809,3.072-0.485,8.247-0.485,8.247v1.294
				C168.032,375.86,257.455,375.213,257.132,375.537z"/>
			<path id="XMLID_43_" style="fill:#FFFFFF;stroke:#263238;stroke-linecap:round;stroke-linejoin:round;stroke-miterlimit:10;" d="
				M201.343,336.404c-0.787,0.45-2.152,1.477-3.85,2.834c0,3.104,0.632,6.422,1.971,9.683c4.172,10.162,13.59,15.922,21.038,12.865
				c6.322-2.595,9.189-10.711,7.358-19.322c-3.788-2.122-7.187-3.739-9.538-4.281C209.914,336.242,204.739,334.464,201.343,336.404z
				"/>
			<path id="XMLID_42_" style="fill:#FFFFFF;stroke:#263238;stroke-linecap:round;stroke-linejoin:round;stroke-miterlimit:10;" d="
				M203.284,321.204c0,0-0.323,9.864-1.132,14.068c-0.809,4.204-0.809,9.864,3.234,16.979c4.043,7.115,13.907,6.792,16.979,4.043
				c3.072-2.749,2.426-10.511,2.426-13.422s1.714-9.751,1.714-9.751s-9.476-3.671-14.327-6.905
				C207.326,322.982,204.901,320.233,203.284,321.204z"/>
			<g>
				
					<path id="XMLID_41_" style="fill:#FFFFFF;stroke:#263238;stroke-linecap:round;stroke-linejoin:round;stroke-miterlimit:10;" d="
					M228.995,294.845c0,0,3.881,6.63,4.851,8.57c0.97,1.94,0.324,4.204-0.485,5.336c-0.879,1.231,6.994,5.068,6.862,7.09
					c-0.129,1.957-0.853,3.129-2.447,5.421c-1.734,2.495-1.087,6.691-1.853,9.622c-0.654,2.504-1.454,3.123-4.018,4.063
					c-4.851,1.779-13.907,1.132-18.434-1.132c-4.528-2.264-6.145-6.307-7.762-9.217c-1.617-2.911-1.779-8.247-0.809-13.907
					s8.57-13.26,13.422-15.362C223.174,293.228,228.995,294.845,228.995,294.845z"/>
				<path id="XMLID_40_" style="fill:#263238;" d="M233.685,324.761c0,0-4.043,1.294-7.924-1.132c0,0,0,4.851,2.426,5.013
					C230.612,328.804,233.685,324.761,233.685,324.761z"/>
				<path id="XMLID_39_" style="fill:#263238;" d="M228.969,311.672c0.248,1.089-0.01,2.075-0.576,2.204
					c-0.566,0.129-1.226-0.649-1.473-1.738c-0.248-1.089,0.01-2.075,0.576-2.204C228.062,309.806,228.721,310.584,228.969,311.672z"
					/>
				<path id="XMLID_38_" style="fill:none;stroke:#263238;stroke-linecap:round;stroke-linejoin:round;stroke-miterlimit:10;" d="
					M222.689,308.429c0,0,1.617-2.749,5.175-2.426"/>
				<path style="fill:none;stroke:#263238;stroke-linecap:round;stroke-linejoin:round;stroke-miterlimit:10;" d="M238.213,319.742
					c0,0-2.508,2.7-4.051,2.893c-1.543,0.193-3.279-1.929-2.508-3.279"/>
			</g>
			<path id="XMLID_37_" style="fill:#263238;stroke:#263238;stroke-linecap:round;stroke-linejoin:round;stroke-miterlimit:10;" d="
				M209.59,321.204c0.767-0.256,4.528,0.323,4.043-1.779c-0.485-2.102-1.617-2.426-0.809-4.043c0.809-1.617,9.056-5.498,7.277-8.732
				c-1.779-3.234-4.204-5.821-4.204-5.821s13.583-2.587,16.494-6.63c2.911-4.043-0.323-10.349-3.719-10.349
				s-1.779,1.132-10.834,4.043c-9.055,2.911-13.583-0.647-20.375,6.468c-6.792,7.115-4.689,21.022-2.102,25.388
				c2.587,4.366,7.762,7.924,10.349,6.953C208.297,325.731,207.65,321.85,209.59,321.204z"/>
			<path id="XMLID_36_" style="fill:#FFFFFF;stroke:#263238;stroke-linecap:round;stroke-linejoin:round;stroke-miterlimit:10;" d="
				M212.016,322.659c0,0-5.983-7.6-10.026-5.175c-4.043,2.426,1.941,9.702,4.528,10.511c2.587,0.809,5.66-1.132,5.66-1.132"/>
		</g>
	</g>
</g>
<g id="Character_4">
	<g>
		
			<line style="fill:none;stroke:#263238;stroke-linecap:round;stroke-linejoin:round;stroke-miterlimit:10;" x1="331.857" y1="421.928" x2="167.667" y2="421.928"/>
		<g>
			<g>
				<defs>
					<path id="XMLID_61_" d="M245.736,417.626c0,0-0.148-8.901,1.187-10.236c1.335-1.335,34.119-19.284,43.316-19.136
						c9.197,0.148,21.772,12.666,28.482,16.021c10.681,5.34,10.681,8.307,11.571,11.274c0.89,2.967,1.632,6.379,1.632,6.379h-86.187
						V417.626z"/>
				</defs>
				<use xlink:href="#XMLID_61_"  style="overflow:visible;fill:#FFFFFF;"/>
				<clipPath id="XMLID_00000165928132888584630690000001780982189389459109_">
					<use xlink:href="#XMLID_61_"  style="overflow:visible;"/>
				</clipPath>
				<path style="clip-path:url(#XMLID_00000165928132888584630690000001780982189389459109_);fill:#ADADAD;" d="M331.502,420.107
					c-2.482-0.169-5.148-0.314-7.962-0.437l1.138-7.144c1.579,0.062,3.144,0.133,4.702,0.207c-0.452-1.001-1.168-2.073-2.503-3.291
					c-0.566-0.024-1.128-0.051-1.697-0.073l0.185-1.163c-0.227-0.169-0.47-0.341-0.722-0.516l-0.263,1.648
					c-0.511-0.02-1.022-0.039-1.535-0.058l0.404-2.499c0.002,0,0.004,0,0.005,0c-0.859-0.534-1.836-1.095-2.948-1.686l-0.116,0.714
					c-3.276-0.176-6.566-0.312-9.843-0.414l0.548-4.968c0.66,0.013,1.315,0.037,1.975,0.052c-1.929-1.4-4.022-2.975-6.19-4.52
					l-0.178,1.222c-3.613-0.049-7.21-0.074-10.757-0.08l0.668-7.302c-0.257-0.111-0.513-0.22-0.768-0.32l-0.697,7.62
					c-0.543,0-1.085,0-1.626,0l0.616-8.215c-1.076-0.323-2.125-0.528-3.138-0.598l-0.662,8.82c-1.914,0.007-3.806,0.02-5.671,0.037
					l0.594-7.961c-0.266,0.077-0.538,0.16-0.814,0.245l-0.576,7.724c-0.903,0.009-1.802,0.018-2.691,0.029l0.209-6.715
					c-1.034,0.377-2.109,0.792-3.214,1.238l-0.172,5.521c-2.773,0.041-5.464,0.091-8.048,0.146l0.098-2.116
					c-0.271,0.126-0.541,0.252-0.812,0.379l-0.082,1.754c-0.699,0.015-1.39,0.031-2.073,0.047l0.031-0.792
					c-2.918,1.403-5.773,2.841-8.372,4.193c1.609-0.049,3.287-0.096,5.037-0.142l-0.2,5.097c-1.918,0.081-3.733,0.166-5.435,0.251
					l0.173-4.985c-0.273,0.142-0.543,0.284-0.809,0.424l-0.16,4.601c-0.475,0.024-0.943,0.048-1.399,0.072l0.208-3.959
					c-1.176,0.626-2.274,1.22-3.271,1.769l-0.124,2.365c-1.691,0.097-3.187,0.189-4.481,0.273c-0.636,0.391-1.04,0.663-1.165,0.789
					c-0.025,0.025-0.048,0.058-0.072,0.088c1.523-0.102,3.433-0.223,5.677-0.352l-0.129,2.459c-2.365,0.083-4.461,0.164-6.266,0.238
					c-0.149,0.967-0.244,2.095-0.303,3.189c1.822-0.075,3.969-0.158,6.402-0.245l-0.348,6.609c-2.272,0.042-4.331,0.084-6.147,0.122
					v0.794c1.803-0.039,3.849-0.08,6.105-0.122l-0.092,1.758h3.178l0.096-1.815c0.54-0.009,1.089-0.018,1.646-0.027l-0.064,1.842
					h0.794l0.065-1.855c1.715-0.027,3.509-0.054,5.367-0.079l-0.076,1.934h3.176l0.077-1.974c0.63-0.008,1.266-0.015,1.907-0.022
					l-0.093,1.995h0.794l0.093-2.004c2.713-0.029,5.521-0.053,8.392-0.07l-0.065,2.074h3.175l0.065-2.09
					c0.567-0.002,1.134-0.005,1.705-0.007l-0.156,2.097h0.796l0.157-2.099c1.874-0.005,3.763-0.007,5.66-0.005l-0.158,2.104h3.182
					l0.157-2.098c0.417,0.001,0.833,0.003,1.25,0.005l-0.191,2.093h0.797l0.191-2.089c3.192,0.015,6.381,0.043,9.529,0.085
					l-0.292,2.005h3.208l0.285-1.957c0.517,0.009,1.03,0.018,1.544,0.027l-0.213,1.93h0.798l0.211-1.915
					c3.125,0.061,6.176,0.138,9.119,0.234l-0.272,1.681h3.216l0.254-1.568c0.526,0.02,1.044,0.042,1.561,0.063l-0.24,1.505h0.804
					l0.234-1.471c2.934,0.128,5.707,0.28,8.278,0.457C331.638,420.677,331.574,420.406,331.502,420.107z M256.696,419.292
					c-0.553,0.009-1.097,0.018-1.632,0.027l0.351-6.662c0.496-0.016,1-0.033,1.514-0.049L256.696,419.292z M257.039,409.43
					c-0.494,0.016-0.98,0.031-1.457,0.047l0.133-2.527c0.461-0.024,0.932-0.049,1.413-0.073L257.039,409.43z M262.861,419.2
					c-1.858,0.025-3.654,0.051-5.37,0.078l0.233-6.695c1.714-0.053,3.515-0.106,5.403-0.157L262.861,419.2z M263.251,409.249
					c-1.89,0.051-3.698,0.103-5.416,0.156l0.089-2.568c1.7-0.085,3.514-0.17,5.431-0.251L263.251,409.249z M267.952,419.139
					c-0.644,0.007-1.281,0.014-1.913,0.022l0.267-6.816c0.647-0.016,1.301-0.031,1.964-0.047L267.952,419.139z M268.418,409.121
					c-0.67,0.015-1.333,0.031-1.987,0.047l0.106-2.71c0.659-0.025,1.33-0.05,2.008-0.074L268.418,409.121z M268.582,405.588
					c-0.681,0.024-1.353,0.049-2.014,0.074l0.198-5.049c0.675-0.016,1.359-0.032,2.05-0.047L268.582,405.588z M277.126,419.06
					c-2.867,0.017-5.671,0.041-8.38,0.07l0.319-6.85c2.652-0.059,5.417-0.113,8.278-0.157L277.126,419.06z M277.441,408.948
					c-2.842,0.044-5.591,0.097-8.229,0.155l0.128-2.748c2.604-0.09,5.344-0.171,8.189-0.237L277.441,408.948z M277.554,405.323
					c-2.841,0.066-5.576,0.147-8.177,0.236l0.233-5.012c2.598-0.056,5.307-0.106,8.097-0.148L277.554,405.323z M280.885,400.357
					c0.844-0.01,1.697-0.02,2.553-0.028l-0.365,4.888c-0.787,0.012-1.568,0.026-2.341,0.04L280.885,400.357z M282.042,419.038
					c-0.582,0.002-1.161,0.004-1.74,0.007l0.217-6.966c0.677-0.009,1.358-0.017,2.044-0.025L282.042,419.038z M280.618,408.903
					l0.089-2.853c0.762-0.014,1.532-0.027,2.307-0.04l-0.214,2.867C282.068,408.885,281.341,408.894,280.618,408.903z
					 M288.499,419.031c-1.898-0.002-3.787,0-5.661,0.005l0.522-6.991c1.862-0.019,3.752-0.035,5.666-0.045L288.499,419.031z
					 M289.264,408.826c-1.915,0.01-3.805,0.025-5.667,0.044l0.214-2.871c1.858-0.027,3.75-0.046,5.67-0.057L289.264,408.826z
					 M289.54,405.147c-1.919,0.011-3.812,0.03-5.67,0.057l0.365-4.884c1.864-0.017,3.756-0.03,5.67-0.038L289.54,405.147z
					 M293.088,400.274c0.523-0.001,1.048-0.001,1.573,0l-0.445,4.864c-0.499-0.001-0.997-0.001-1.493-0.001L293.088,400.274z
					 M292.944,419.043c-0.421-0.002-0.842-0.003-1.263-0.005l0.529-7.05c0.459-0.001,0.919-0.002,1.38-0.002L292.944,419.043z
					 M292.447,408.815l0.216-2.885c0.492,0,0.985,0,1.48,0.001l-0.264,2.882C293.401,408.813,292.924,408.814,292.447,408.815z
					 M303.312,419.133c-3.162-0.042-6.365-0.07-9.571-0.086l0.646-7.061c3.28,0,6.608,0.016,9.957,0.051L303.312,419.133z
					 M304.805,408.869c-3.406-0.038-6.792-0.056-10.128-0.056l0.264-2.88c3.373,0.01,6.808,0.048,10.274,0.121L304.805,408.869z
					 M305.329,405.263c-3.48-0.074-6.93-0.113-10.317-0.123l0.445-4.866c3.49,0.005,7.029,0.028,10.586,0.074L305.329,405.263z
					 M309.245,400.397c0.285,0.005,0.57,0.009,0.856,0.015l-0.547,4.959c-0.343-0.01-0.686-0.02-1.028-0.029L309.245,400.397z
					 M308.411,406.132c0.352,0.01,0.704,0.019,1.056,0.03l-0.305,2.767c-0.385-0.006-0.77-0.013-1.155-0.019L308.411,406.132z
					 M308.029,419.207c-0.504-0.009-1.008-0.019-1.516-0.027l1.033-7.103c0.422,0.006,0.844,0.013,1.267,0.02L308.029,419.207z
					 M317.985,419.458c-2.956-0.097-6.021-0.175-9.159-0.236l0.784-7.113c3.18,0.054,6.364,0.128,9.528,0.224L317.985,419.458z
					 M319.649,409.174c-3.217-0.099-6.455-0.176-9.69-0.232l0.304-2.756c3.264,0.102,6.54,0.237,9.803,0.411L319.649,409.174z
					 M322.741,419.636c-0.516-0.022-1.034-0.043-1.559-0.064l1.154-7.134c0.515,0.018,1.029,0.037,1.543,0.057L322.741,419.636z"/>
				
					<use xlink:href="#XMLID_61_"  style="overflow:visible;fill:none;stroke:#263238;stroke-linecap:round;stroke-linejoin:round;stroke-miterlimit:10;"/>
			</g>
			<path id="XMLID_60_" style="fill:#263238;stroke:#263238;stroke-linecap:round;stroke-linejoin:round;stroke-miterlimit:10;" d="
				M285.344,384.694c0,0-4.45,0.297-5.637,2.522c-1.187,2.225-0.593,3.56-2.967,10.236c-2.374,6.675-3.709,8.604-2.374,8.604
				c1.335,0,5.044-3.857,6.379-4.45c1.335-0.593,4.45,4.599,4.45,4.599s5.934-3.115,7.862-3.263
				c1.928-0.148,6.082,7.862,6.824,6.527c0.742-1.335,2.67-6.23,4.747-10.681c2.077-4.45,2.522-8.159,0.742-11.126
				C303.589,384.694,286.827,383.804,285.344,384.694z"/>
			<path id="XMLID_59_" style="fill:#FFFFFF;stroke:#263238;stroke-linecap:round;stroke-linejoin:round;stroke-miterlimit:10;" d="
				M282.673,383.211c0,0-1.187,7.121-0.148,13.796c1.038,6.675,2.522,10.532,3.708,9.642c1.187-0.89,8.456-5.34,12.164-9.939
				c3.708-4.599,4.302-5.192,5.34-7.714c1.038-2.522,2.225-5.34,2.225-5.34S292.167,388.848,282.673,383.211z"/>
			<g>
				
					<path id="XMLID_58_" style="fill:#FFFFFF;stroke:#263238;stroke-linecap:round;stroke-linejoin:round;stroke-miterlimit:10;" d="
					M282.822,358.734c0,0-2.67-4.154-4.154,0.742c-1.483,4.895,2.077,7.565,2.522,7.269
					C281.635,366.448,282.822,358.734,282.822,358.734z"/>
				
					<path id="XMLID_57_" style="fill:#FFFFFF;stroke:#263238;stroke-linecap:round;stroke-linejoin:round;stroke-miterlimit:10;" d="
					M284.157,348.35c0,0-4.895,21.213-5.934,27.295c-1.038,6.082,5.637,11.719,13.054,12.757c7.417,1.038,14.538-2.522,16.466-6.23
					c1.928-3.709,8.01-27.443,8.9-29.075c0.89-1.632,4.005-8.752,1.632-11.126c-2.374-2.374-6.23-0.593-6.23-0.593
					s-2.67-6.824-7.269-6.972c-4.599-0.148-5.192,1.928-5.192,1.928s-4.005-4.895-7.714-3.857c-3.708,1.038-3.708,3.412-3.708,3.412
					s-6.824-1.632-9.346,3.263c-2.522,4.895,4.45,6.379,4.45,6.379S281.783,347.609,284.157,348.35z"/>
				
					<path id="XMLID_56_" style="fill:#FFFFFF;stroke:#263238;stroke-linecap:round;stroke-linejoin:round;stroke-miterlimit:10;" d="
					M311.303,365.707c0.445-0.148,3.412-4.895,6.23-2.967c2.819,1.928-0.445,9.197-2.819,10.384
					c-2.373,1.187-4.302-0.593-4.599-1.632"/>
				<g>
					<g>
						
							<path id="XMLID_55_" style="fill:#C6FF00;stroke:#263238;stroke-linecap:round;stroke-linejoin:round;stroke-miterlimit:10;" d="
							M318.275,341.972c-2.374-2.374-6.23-0.593-6.23-0.593s-2.67-6.824-7.269-6.972c-4.599-0.148-5.192,1.928-5.192,1.928
							s-4.005-4.895-7.714-3.857c-3.708,1.038-3.708,3.412-3.708,3.412s-6.824-1.632-9.346,3.263
							c-2.522,4.895,4.45,6.379,4.45,6.379s-1.483,2.077,0.89,2.818c0.89-0.89,2.67-4.895,11.719-5.044
							c9.049-0.148,16.318,6.379,16.318,6.379s-3.264,3.857-2.225,5.489c1.038,1.632,2.225,1.484,2.077,2.819
							c-0.148,1.335-2.967,13.499-4.154,15.428c-1.187,1.928-3.857,2.819-5.934,2.225c-2.077-0.593-3.264-2.077-6.972-4.005
							c-3.708-1.928-6.824-2.67-9.494-1.632c-2.67,1.038-2.819,1.928-4.302,2.374c-1.281,0.384-1.677-0.448-2.048-1.447
							c-0.402,1.935-0.727,3.583-0.919,4.71c-1.038,6.082,5.637,11.719,13.054,12.757c7.417,1.038,14.538-2.522,16.466-6.23
							c1.928-3.708,8.01-27.443,8.9-29.075C317.534,351.466,320.649,344.345,318.275,341.972z"/>
						
							<path id="XMLID_54_" style="fill:#263238;stroke:#263238;stroke-linecap:round;stroke-linejoin:round;stroke-miterlimit:10;" d="
							M286.085,372.827c0,0,5.489,3.412,9.197,1.335c0,0-3.709,4.45-5.637,4.45C287.717,378.612,286.085,372.827,286.085,372.827z"
							/>
					</g>
					<g>
						<path id="XMLID_53_" style="fill:none;stroke:#263238;stroke-linecap:round;stroke-linejoin:round;stroke-miterlimit:10;" d="
							M290.239,360.292c0,2.745-2.225,4.97-4.97,4.97c-2.745,0-4.969-2.225-4.969-4.97c0-2.745,2.225-4.969,4.969-4.969
							C288.014,355.323,290.239,357.547,290.239,360.292z"/>
						<path id="XMLID_52_" style="fill:none;stroke:#263238;stroke-linecap:round;stroke-linejoin:round;stroke-miterlimit:10;" d="
							M304.628,362.814c0,2.745-2.225,4.969-4.969,4.969c-2.745,0-4.969-2.225-4.969-4.969c0-2.745,2.225-4.969,4.969-4.969
							C302.403,357.844,304.628,360.069,304.628,362.814z"/>
						<path id="XMLID_51_" style="fill:none;stroke:#263238;stroke-linecap:round;stroke-linejoin:round;stroke-miterlimit:10;" d="
							M290.387,359.773c0,0,2.077-1.038,4.599,1.038"/>
						
							<line id="XMLID_50_" style="fill:none;stroke:#263238;stroke-linecap:round;stroke-linejoin:round;stroke-miterlimit:10;" x1="304.628" y1="362.814" x2="314.27" y2="363.185"/>
						<path id="XMLID_49_" style="fill:none;stroke:#263238;stroke-linecap:round;stroke-linejoin:round;stroke-miterlimit:10;" d="
							M291.129,360.366c0,0-2.967,5.785-3.263,7.12c-0.297,1.335,1.335,2.077,3.412,2.077c2.077,0,2.967-0.89,2.967-1.78"/>
						<g id="XMLID_48_">
							<path style="fill:#C6FF00;" d="M290.683,354.733c-0.197,0-0.397-0.049-0.58-0.152c-3.032-1.697-5.251-0.219-5.274-0.204
								c-0.541,0.371-1.283,0.233-1.655-0.311c-0.371-0.542-0.232-1.283,0.311-1.654c0.139-0.095,3.477-2.32,7.78,0.092
								c0.574,0.321,0.779,1.046,0.457,1.62C291.505,354.513,291.1,354.733,290.683,354.733z"/>
						</g>
						<g id="XMLID_47_">
							<path style="fill:#C6FF00;" d="M305.222,359.628c-0.373,0-0.739-0.174-0.972-0.501c-2.731-3.848-6.646-2.68-6.684-2.668
								c-0.629,0.198-1.296-0.155-1.491-0.781c-0.196-0.628,0.154-1.295,0.781-1.491c1.928-0.604,6.358-0.634,9.336,3.562
								c0.38,0.536,0.254,1.279-0.282,1.66C305.701,359.556,305.461,359.628,305.222,359.628z"/>
						</g>
						
							<ellipse id="XMLID_46_" style="fill:#263238;stroke:#263238;stroke-linecap:round;stroke-linejoin:round;stroke-miterlimit:10;" cx="285.863" cy="360.514" rx="0.964" ry="1.78"/>
						
							<path id="XMLID_45_" style="fill:#263238;stroke:#263238;stroke-linecap:round;stroke-linejoin:round;stroke-miterlimit:10;" d="
							M299.881,362.74c0,0.983-0.432,1.78-0.964,1.78c-0.533,0-0.964-0.797-0.964-1.78c0-0.983,0.432-1.78,0.964-1.78
							C299.449,360.96,299.881,361.757,299.881,362.74z"/>
					</g>
				</g>
			</g>
		</g>
	</g>
</g>
<g id="Emojis">
	<g>
		<g>
			
				<ellipse id="XMLID_62_" transform="matrix(0.6177 -0.7864 0.7864 0.6177 -128.7036 152.4794)" style="fill:none;stroke:#263238;stroke-miterlimit:10;" cx="92.477" cy="208.614" rx="27.916" ry="27.916"/>
		</g>
		<path style="fill:none;stroke:#263238;stroke-width:2;stroke-linecap:round;stroke-linejoin:round;stroke-miterlimit:10;" d="
			M81.759,215.971c0,0,18.853,0.993,25.343-16.323"/>
		<path style="fill:#263238;" d="M96.957,194.943c0.988,1.407,1.237,2.935,0.556,3.413c-0.681,0.478-2.033-0.275-3.021-1.682
			c-0.988-1.407-1.237-2.935-0.556-3.413C94.616,192.783,95.969,193.536,96.957,194.943z"/>
		<path style="fill:#263238;" d="M84.778,202.758c0.988,1.407,1.237,2.935,0.556,3.413c-0.681,0.478-2.033-0.275-3.021-1.682
			c-0.988-1.407-1.237-2.935-0.556-3.413C82.438,200.598,83.79,201.351,84.778,202.758z"/>
	</g>
	<g>
		<g>
			<path id="XMLID_69_" style="fill:none;stroke:#263238;stroke-miterlimit:10;" d="M410.578,200.582
				c0.451,10.907,9.658,19.383,20.565,18.932c10.907-0.451,19.383-9.658,18.932-20.565c-0.451-10.907-9.658-19.383-20.565-18.932
				C418.603,180.468,410.127,189.675,410.578,200.582z"/>
		</g>
		<path style="fill:none;stroke:#263238;stroke-width:2;stroke-linecap:round;stroke-linejoin:round;stroke-miterlimit:10;" d="
			M439.53,199.667c0,0-10.52,8.246-21.326,0.853"/>
		<ellipse style="fill:#263238;" cx="423.234" cy="193.666" rx="1.066" ry="2.204"/>
		<path style="fill:#263238;" d="M432.404,193.24c0,1.217,0.477,2.204,1.066,2.204s1.066-0.987,1.066-2.204
			s-0.477-2.204-1.066-2.204S432.404,192.023,432.404,193.24z"/>
	</g>
	<g>
		
			<ellipse id="XMLID_63_" transform="matrix(0.6971 -0.717 0.717 0.6971 -263.1043 204.0576)" style="fill:none;stroke:#263238;stroke-miterlimit:10;" cx="109.961" cy="413.427" rx="26.425" ry="26.425"/>
		<path style="fill:none;stroke:#263238;stroke-miterlimit:10;" d="M95.073,422.075c0,0,16.99-9.697,33.367-12.045
			c0,0,4.697,15.483-10.956,21.476C103.916,436.701,95.073,422.075,95.073,422.075z"/>
		<g>
			<path style="fill:#263238;" d="M98.421,414.609c-0.56,0-1.101-0.305-1.376-0.837l-3.853-7.449
				c-0.393-0.76-0.096-1.694,0.664-2.087c0.76-0.393,1.694-0.096,2.087,0.664l3.853,7.449c0.393,0.76,0.096,1.694-0.664,2.087
				C98.903,414.554,98.66,414.609,98.421,414.609z"/>
		</g>
		<g>
			<path style="fill:#263238;" d="M118.967,407.16c-0.716,0-1.359-0.499-1.513-1.227l-1.798-8.476
				c-0.177-0.836,0.357-1.659,1.193-1.836c0.836-0.181,1.658,0.357,1.836,1.193l1.798,8.476c0.178,0.836-0.357,1.659-1.193,1.836
				C119.182,407.149,119.073,407.16,118.967,407.16z"/>
		</g>
		<path style="fill:none;stroke:#263238;stroke-miterlimit:10;" d="M122.041,429.218c-1.428-3.509-6.405-4.94-11.263-3.186
			c-2.692,0.972-4.783,2.722-5.924,4.702"/>
	</g>
	<g>
		<path id="XMLID_72_" style="fill:none;stroke:#263238;stroke-miterlimit:10;" d="M417.009,296.182
			c-2.89,8.005,1.257,16.838,9.263,19.727c8.005,2.89,16.838-1.257,19.728-9.263c2.89-8.005-1.257-16.838-9.263-19.727
			C428.731,284.03,419.899,288.177,417.009,296.182z"/>
		<path style="fill:none;stroke:#263238;stroke-miterlimit:10;" d="M440.187,306.458c0,0-9.908-5.655-19.459-7.024
			c0,0-2.739,9.029,6.39,12.524C435.03,314.987,440.187,306.458,440.187,306.458z"/>
		<g>
			<path style="fill:#263238;" d="M438.235,302.104c0.327,0,0.642-0.178,0.803-0.488l2.247-4.344
				c0.229-0.443,0.056-0.988-0.387-1.217c-0.443-0.229-0.988-0.056-1.217,0.387l-2.247,4.344c-0.229,0.443-0.056,0.988,0.387,1.217
				C437.953,302.072,438.095,302.104,438.235,302.104z"/>
		</g>
		<g>
			<path style="fill:#263238;" d="M426.252,297.759c0.418,0,0.792-0.291,0.883-0.716l1.049-4.943
				c0.103-0.488-0.208-0.967-0.696-1.07c-0.487-0.106-0.967,0.208-1.071,0.696l-1.049,4.943c-0.104,0.488,0.208,0.967,0.696,1.071
				C426.127,297.753,426.19,297.759,426.252,297.759z"/>
		</g>
		<path style="fill:none;stroke:#263238;stroke-miterlimit:10;" d="M424.46,310.624c0.833-2.046,3.735-2.881,6.568-1.858
			c1.57,0.567,2.789,1.587,3.455,2.742"/>
	</g>
	<g>
		<g>
			<g>
				
					<ellipse id="XMLID_6_" transform="matrix(0.2654 -0.9641 0.9641 0.2654 5.4506 569.2969)" style="fill:none;stroke:#263238;stroke-miterlimit:10;" cx="376.334" cy="281.071" rx="24.279" ry="24.279"/>
				<g>
					<path style="fill:#263238;" d="M357.525,276.929c-0.411,0.113-0.862-0.067-1.073-0.459c-0.246-0.456-0.076-1.024,0.381-1.27
						l6.049-3.261l-4.049-0.14c-0.518-0.018-0.923-0.452-0.905-0.97c0.017-0.517,0.453-0.923,0.969-0.905l7.51,0.259
						c0.424,0.014,0.785,0.311,0.881,0.724c0.096,0.412-0.095,0.838-0.468,1.039l-9.098,4.905
						C357.658,276.884,357.592,276.911,357.525,276.929z"/>
				</g>
				<g>
					<path style="fill:#263238;" d="M389.887,268.028c-0.071,0.019-0.143,0.031-0.22,0.033l-9.877,0.314
						c-0.424,0.014-0.804-0.259-0.927-0.665c-0.123-0.406,0.041-0.844,0.401-1.068l6.67-4.16c0.44-0.275,1.019-0.139,1.291,0.3
						c0.275,0.439,0.14,1.017-0.299,1.292l-3.714,2.316l6.394-0.204c0.518-0.017,0.951,0.389,0.967,0.908
						C390.588,267.535,390.294,267.915,389.887,268.028z"/>
				</g>
				<g>
					<g>
						<path style="fill:none;stroke:#263238;stroke-miterlimit:10;" d="M357.119,281.153c5.147,9.486,14.286,14.895,22.698,12.581
							c8.411-2.314,13.499-11.635,13.07-22.419l-3.247,0.335c-10.393,1.073-20.505,3.877-29.968,8.308L357.119,281.153z"/>
					</g>
				</g>
			</g>
		</g>
		<path style="fill:none;stroke:#263238;stroke-miterlimit:10;" d="M368.346,292.448c-0.074-0.467-0.112-0.945-0.112-1.431
			c0-5.497,4.879-9.953,10.897-9.953c4.32,0,8.052,2.296,9.815,5.624"/>
	</g>
	<g>
		<g>
			<g>
				
					<ellipse id="XMLID_70_" transform="matrix(0.9366 -0.3504 0.3504 0.9366 -90.7262 62.255)" style="fill:none;stroke:#263238;stroke-miterlimit:10;" cx="126.662" cy="281.825" rx="17.979" ry="17.979"/>
				<g>
					<path style="fill:#263238;" d="M140.59,278.757c0.305,0.084,0.638-0.05,0.795-0.34c0.182-0.337,0.056-0.758-0.282-0.941
						l-4.479-2.415l2.998-0.104c0.383-0.013,0.683-0.335,0.67-0.718c-0.013-0.383-0.335-0.683-0.717-0.67l-5.561,0.192
						c-0.314,0.011-0.581,0.23-0.652,0.536c-0.071,0.305,0.07,0.621,0.347,0.769l6.737,3.632
						C140.491,278.724,140.54,278.743,140.59,278.757z"/>
				</g>
				<g>
					<path style="fill:#263238;" d="M116.626,272.166c0.052,0.014,0.106,0.023,0.163,0.025l7.314,0.233
						c0.314,0.01,0.595-0.192,0.687-0.492c0.091-0.301-0.031-0.625-0.297-0.791l-4.939-3.08c-0.326-0.204-0.754-0.103-0.956,0.222
						c-0.203,0.325-0.104,0.753,0.221,0.956l2.75,1.715l-4.735-0.151c-0.383-0.012-0.704,0.288-0.716,0.672
						C116.106,271.801,116.323,272.082,116.626,272.166z"/>
				</g>
				<g>
					<g>
						<path style="fill:none;stroke:#263238;stroke-miterlimit:10;" d="M140.89,281.885c-3.811,7.025-10.579,11.03-16.808,9.316
							c-6.229-1.713-9.996-8.616-9.679-16.602l2.405,0.248c7.696,0.795,15.184,2.871,22.192,6.152L140.89,281.885z"/>
					</g>
				</g>
			</g>
		</g>
		<path style="fill:none;stroke:#263238;stroke-miterlimit:10;" d="M132.577,290.249c0.055-0.346,0.083-0.7,0.083-1.06
			c0-4.07-3.613-7.37-8.069-7.37c-3.199,0-5.963,1.7-7.268,4.164"/>
	</g>
	<g>
		<g>
			<g>
				
					<ellipse id="XMLID_64_" transform="matrix(0.1341 -0.991 0.991 0.1341 235.8071 480.3091)" style="fill:none;stroke:#263238;stroke-miterlimit:10;" cx="392.732" cy="105.228" rx="27.916" ry="27.916"/>
			</g>
			<path style="fill:#263238;" d="M381.209,96.613c0,1.719,0.674,3.113,1.506,3.113c0.832,0,1.506-1.394,1.506-3.113
				c0-1.719-0.674-3.112-1.506-3.112C381.883,93.501,381.209,94.894,381.209,96.613z"/>
			<path style="fill:#263238;" d="M395.667,96.011c0,1.719,0.674,3.112,1.506,3.112c0.832,0,1.506-1.393,1.506-3.112
				s-0.674-3.113-1.506-3.113C396.341,92.898,395.667,94.292,395.667,96.011z"/>
		</g>
		
			<line style="fill:none;stroke:#263238;stroke-width:2;stroke-linecap:round;stroke-linejoin:round;stroke-miterlimit:10;" x1="379.782" y1="87.774" x2="386.611" y2="95.157"/>
		
			<line style="fill:none;stroke:#263238;stroke-width:2;stroke-linecap:round;stroke-linejoin:round;stroke-miterlimit:10;" x1="398.053" y1="87.22" x2="391.778" y2="94.972"/>
		<path style="fill:none;stroke:#263238;stroke-width:2;stroke-linecap:round;stroke-linejoin:round;stroke-miterlimit:10;" d="
			M379.228,111.767c0,0,9.043-10.704,21.409-2.03"/>
	</g>
	<g>
		<g>
			<g>
				
					<ellipse id="XMLID_71_" transform="matrix(1 -0.0051 0.0051 1 -1.6717 0.3487)" style="fill:none;stroke:#263238;stroke-miterlimit:10;" cx="67.265" cy="326.623" rx="19.623" ry="19.623"/>
			</g>
			<path style="fill:#263238;" d="M69.073,316.673c0.823,0.885,1.143,1.925,0.715,2.323c-0.428,0.398-1.442,0.004-2.265-0.881
				c-0.823-0.885-1.143-1.925-0.715-2.323C67.235,315.393,68.25,315.788,69.073,316.673z"/>
			<path style="fill:#263238;" d="M61.342,323.284c0.823,0.885,1.143,1.925,0.715,2.323c-0.428,0.398-1.442,0.004-2.265-0.881
				c-0.823-0.885-1.143-1.925-0.715-2.323C59.506,322.005,60.52,322.399,61.342,323.284z"/>
		</g>
		
			<line style="fill:none;stroke:#263238;stroke-width:2;stroke-linecap:round;stroke-linejoin:round;stroke-miterlimit:10;" x1="65.576" y1="311.44" x2="65.595" y2="318.509"/>
		
			<line style="fill:none;stroke:#263238;stroke-width:2;stroke-linecap:round;stroke-linejoin:round;stroke-miterlimit:10;" x1="55.906" y1="319.902" x2="62.847" y2="320.888"/>
		<path style="fill:none;stroke:#263238;stroke-width:2;stroke-linecap:round;stroke-linejoin:round;stroke-miterlimit:10;" d="
			M77.346,323.524c0,0-9.779-1.181-11.991,9.204"/>
	</g>
	<g>
		<g>
			<path id="XMLID_67_" style="fill:none;stroke:#263238;stroke-miterlimit:10;" d="M147.788,50.264
				c3.631,2.932,6.532,6.864,8.232,11.574c4.955,13.727-2.156,28.872-15.883,33.827s-28.872-2.156-33.827-15.883
				c-1.468-4.067-1.877-8.258-1.369-12.272"/>
			<path id="XMLID_66_" style="fill:none;stroke:#263238;stroke-miterlimit:10;" d="M122.608,45.809
				c1.332-0.456,2.677-0.8,4.023-1.036"/>
			<path style="fill:none;stroke:#263238;stroke-miterlimit:10;" d="M116.276,79.457c0,0,16.99-9.697,33.367-12.045
				c0,0,4.697,15.483-10.956,21.476C125.119,94.083,116.276,79.457,116.276,79.457z"/>
			<path style="fill:none;stroke:#263238;stroke-miterlimit:10;" d="M143.244,86.601c-1.428-3.509-6.405-4.94-11.263-3.186
				c-2.692,0.972-4.782,2.722-5.924,4.701"/>
		</g>
		<path style="fill:none;stroke:#263238;stroke-miterlimit:10;" d="M124.621,48.278c-2.268-3.789-7.179-5.022-10.968-2.754
			c-2.44,1.461-3.812,4.018-3.88,6.665c-2.365-1.191-5.267-1.189-7.707,0.271c-3.789,2.268-5.022,7.179-2.754,10.968
			c3.747,6.258,21.494,7.339,21.494,7.339S129.407,56.271,124.621,48.278z"/>
		<path style="fill:none;stroke:#263238;stroke-miterlimit:10;" d="M150.216,45.252c0.397-3.544-2.154-6.74-5.699-7.137
			c-2.283-0.256-4.416,0.716-5.754,2.383c-0.937-1.923-2.802-3.342-5.084-3.597c-3.544-0.397-6.74,2.154-7.137,5.699
			c-0.656,5.854,10.218,15.234,10.218,15.234S149.379,52.729,150.216,45.252z"/>
	</g>
	<g>
		<g>
			<path id="XMLID_68_" style="fill:none;stroke:#263238;stroke-miterlimit:10;" d="M372.365,376.864
				c-2.766,2.233-4.975,5.228-6.27,8.816c-3.774,10.456,1.642,21.991,12.097,25.765c10.456,3.774,21.991-1.642,25.765-12.098
				c1.118-3.098,1.43-6.29,1.042-9.347"/>
			<path id="XMLID_65_" style="fill:none;stroke:#263238;stroke-miterlimit:10;" d="M391.544,373.471
				c-1.015-0.348-2.039-0.61-3.064-0.789"/>
			<path style="fill:none;stroke:#263238;stroke-miterlimit:10;" d="M396.366,399.1c0,0-12.941-7.386-25.414-9.174
				c0,0-3.578,11.793,8.345,16.357C389.631,410.24,396.366,399.1,396.366,399.1z"/>
			<path style="fill:none;stroke:#263238;stroke-miterlimit:10;" d="M375.826,404.54c1.088-2.673,4.878-3.763,8.579-2.427
				c2.05,0.74,3.643,2.073,4.512,3.581"/>
		</g>
		<path style="fill:none;stroke:#263238;stroke-miterlimit:10;" d="M390.01,375.351c1.728-2.886,5.468-3.825,8.354-2.097
			c1.858,1.113,2.904,3.06,2.955,5.076c1.801-0.907,4.012-0.906,5.87,0.207c2.886,1.728,3.825,5.468,2.097,8.354
			c-2.854,4.767-16.371,5.59-16.371,5.59S386.365,381.44,390.01,375.351z"/>
		<path style="fill:none;stroke:#263238;stroke-miterlimit:10;" d="M370.516,373.047c-0.302-2.7,1.641-5.133,4.341-5.436
			c1.739-0.195,3.363,0.545,4.383,1.815c0.713-1.464,2.134-2.545,3.873-2.74c2.7-0.302,5.133,1.641,5.436,4.341
			c0.499,4.459-7.783,11.603-7.783,11.603S371.154,378.742,370.516,373.047z"/>
	</g>
</g>
</svg>
